<svg xmlns="http://www.w3.org/2000/svg" width="548.352" height="363.655" viewBox="0 0 548.352 363.655">
  <g id="グループ_295" data-name="グループ 295" transform="translate(-153.648 89.279)">
    <path id="パス_55" data-name="パス 55" d="M4148.086-437.633c-78.083,27.273-205.9,90.078-229.208,126.492s18.349,59.547,5.25,95.125-9.6,103.25,32.236,126.3,193.3,15.016,230.265,11.406,99.753-18.7,154.254-32.742,41.905-60.906,68.288-89.945,87.819-136.344,20.034-167.172S4148.086-437.633,4148.086-437.633Z" transform="translate(-3758 348.354)" fill="#fcfcef"/>
    <path id="パス_51" data-name="パス 51" d="M36.495-30.825c0-.63-.81-1.035-1.935-1.035a2.566,2.566,0,0,0-.585.045A26.872,26.872,0,0,1,27-30.42a7.92,7.92,0,0,1-3.105-.54,2.625,2.625,0,0,0-.9-.225c-.135,0-.225.045-.225.18,0,.585,1.575,2.43,4.59,2.43,1.53,0,5.265-1.035,7.785-1.26C36.135-29.925,36.495-30.42,36.495-30.825ZM33.165-5.85A11.121,11.121,0,0,1,38.16-1.395a1.317,1.317,0,0,0,1.125.765,1.117,1.117,0,0,0,1.08-1.17c0-1.4-2.7-4.275-7.11-5.76a14.189,14.189,0,0,0-.54-2.835,32.81,32.81,0,0,1-.72-7.2c5.22-1.53,5.445-4.14,5.445-4.185a1.266,1.266,0,0,0-.855-1.17c-.315-.135-.855-.18-1.305-.36a9.841,9.841,0,0,1-2.34-1.44,3.361,3.361,0,0,0,.135-.9,2.614,2.614,0,0,0-2.34-2.205c-.225,0-.765.045-.765.63a1.4,1.4,0,0,0,.315.765,2.457,2.457,0,0,1,.45,1.62c0,.54-.045,1.26-.09,2.43-.045,1.08-.09,2.16-.09,3.24a19.622,19.622,0,0,1-3.645.45,6.832,6.832,0,0,1-4.185-1.53c-.225-.18-.585-.54-.765-.54-.09,0-.135.09-.135.315,0,1.62,1.62,3.69,5.445,3.69a20.17,20.17,0,0,0,3.33-.405,57.579,57.579,0,0,0,.585,7.2,15.9,15.9,0,0,1,.27,1.89,15.115,15.115,0,0,0-3.195-.36c-3.825,0-7.92,1.485-7.92,4.23,0,2.2,2.745,4.545,5.85,4.545A7.326,7.326,0,0,0,33.165-5.85ZM11.745.585c.45,0,.765-.36.765-.99a4.433,4.433,0,0,0-.36-1.44,5.567,5.567,0,0,1-.315-2.07c0-4.005,2.385-10.755,3.96-14.22a2.7,2.7,0,0,0,.315-.945c0-.09-.045-.135-.09-.135-.135,0-.45.315-.675.765-1.8,3.465-3.195,6.885-4.365,9.18-.18.36-.315.5-.45.5-.09,0-.54-.405-.54-2.115,0-3.1,1.485-8.235,2.43-10.53a13.235,13.235,0,0,0,1.125-4.68A5.073,5.073,0,0,0,9.18-31.23c-.225,0-.315.09-.315.225,0,.18.18.45.5.81a6.846,6.846,0,0,1,1.755,4.86,26.268,26.268,0,0,1-.945,5.9A45.494,45.494,0,0,0,8.415-8.73C8.415-3.015,10.305.585,11.745.585Zm21.06-24.75c.63.405,2.025,1.62,2.025,2.52,0,.585-.945,1.44-2.745,2.07A19.251,19.251,0,0,1,32.805-24.165Zm-1.44,17.6A5.509,5.509,0,0,1,25.74-1.62c-2.52,0-3.96-1.305-3.96-2.61,0-2.295,3.96-2.88,5.94-2.88A12.107,12.107,0,0,1,31.365-6.57Zm40.95-17.55a9.76,9.76,0,0,1,8.415,9.54c0,7.065-7.6,12.51-15.3,14.31-1.215.315-1.8.585-1.8.765,0,.09.315.18.81.18,4.23,0,18.72-3.96,18.72-14.9A11.487,11.487,0,0,0,72.63-25.47a12.155,12.155,0,0,0,.27-2.43c0-4.365-3.06-4.41-3.33-4.41-.63,0-1.53.54-1.53.855s.99.315,1.305.54c.765.585,1.17,1.89,1.17,3.78,0,.5-.045,1.035-.09,1.62a17.984,17.984,0,0,0-10.08,4.05c-.855-2.115-1.485-4.14-2.16-5.445a3.744,3.744,0,0,0-2.52-2.25c-.18,0-.27.09-.27.315a1.556,1.556,0,0,0,.135.54c.585,1.3,1.305,3.24,2.025,5.175.36.99.765,2.07,1.215,3.1C55.62-16.785,54-13.005,54-9.945,54-7.2,55.35-4.9,57.555-4.9c3.375,0,7.74-5.265,8.64-6.615a9.318,9.318,0,0,0,2.43.63c.765,0,1.215-.45,1.215-.81,0-.4-.45-1.125-2.385-1.71A40.356,40.356,0,0,0,72.315-24.12ZM70.2-24.21a31.167,31.167,0,0,1-4.23,10.26c-2.385-1.17-3.96-3.735-5.175-6.435A15.178,15.178,0,0,1,70.2-24.21ZM64.845-12.195C62.64-8.91,59.58-6.975,58.14-6.975c-1.8,0-2.655-2.61-2.655-4.05,0-2.385,1.35-5.175,3.825-7.875A14.811,14.811,0,0,0,64.845-12.195ZM111.87-31.95c0,.45-.36.9-1.125,1.3-.99.54-2.115,1.035-3.06,1.62a5.66,5.66,0,0,0-2.97,4.86c0,.225.045.405.045.63a19.674,19.674,0,0,1,.135,2.07c0,.5-.045.945-.09,1.53a77.9,77.9,0,0,0-.81,8.46c0,5.535,3.015,6.48,3.555,6.48.495,0,1.035-.36,1.755-1.215,2.115-2.655,2.835-3.915,4.95-5.49a5.167,5.167,0,0,1,3.195-1.08,5.118,5.118,0,0,1,5.4,4.86c0,2.61-2.34,7.965-12.6,10.485a6.356,6.356,0,0,0-2.115.675c0,.045.135.045.36.045,7.47,0,16.785-4.5,16.785-11.25,0-4.365-4.725-6.345-7.11-6.345a8.255,8.255,0,0,0-4.68,1.485c-2.16,1.485-3.375,2.88-4.455,3.6a3.837,3.837,0,0,1-1.71.765c-.585,0-1.71-.225-1.71-4.1a28.694,28.694,0,0,1,.63-5.625,24.611,24.611,0,0,0,.675-4.095,8.273,8.273,0,0,0-.27-1.935,6.2,6.2,0,0,1-.09-.99c0-3.42,2.88-3.555,4.05-3.555a8.306,8.306,0,0,1,2.565.315,4.056,4.056,0,0,0,1.44.4,1.853,1.853,0,0,0,1.53-1.935c0-2.88-5.355-5.04-5.58-5.04-.135,0-.18.09-.18.135,0,.18.27.54.315.63a5.942,5.942,0,0,1,1.17,2.16ZM166.635-9.855c.09-2.88,1.53-6.21,2.07-9.585a11.368,11.368,0,0,0,.18-2.07c0-3.51-1.8-5.4-4.59-5.4-2.835,0-7.155,1.98-12.24,7.74.9-1.35,1.485-2.16,1.485-2.835,0-.5-.36-.9-1.44-.99h-.27c0-.09.045-.135.045-.225.09-.72.27-1.935.54-3.2a15.85,15.85,0,0,0,.45-3.285c0-2.52-2.52-4.77-4.1-4.77-.765,0-1.755.315-1.755.765,0,.315.4.585.99.72,1.53.36,2.79,1.08,2.79,4.68,0,1.4-.18,2.97-.315,4.635a8.591,8.591,0,0,1-.09.9c-6.345,1.575-7.6,2.655-7.6,4.365,0,.855.315,2.2,2.88,7.56-.81,1.305-3.735,6.255-3.735,8.325,0,.585.27.9.63.9.765,0,2.115-1.35,2.565-3.285a27.194,27.194,0,0,1,1.4-3.78c.9,2.34,2.205,5.49,2.25,6.66.045,2.34,1.035,3.51,1.845,3.51.54,0,.99-.54.99-1.62a6.858,6.858,0,0,0-.36-1.89,22.645,22.645,0,0,1-.9-6.84,62.178,62.178,0,0,1,.495-7.38c4.005-5.22,9.675-9.315,13.14-9.315,1.935,0,3.1,1.26,3.1,3.78a11.267,11.267,0,0,1-.27,2.3c-.63,3.24-2.115,6.48-2.385,9.36a12.218,12.218,0,0,0-.045,1.26c0,4.095,2.16,6.21,5.085,6.21,5.535,0,10.125-6.705,10.125-7.56,0-.09-.045-.135-.09-.135-.18,0-.675.36-1.575,1.305-2.655,2.7-5.4,4.1-7.515,4.1-2.25,0-3.78-1.53-3.78-4.59Zm-16.74-9.18a35.163,35.163,0,0,1-3.78,7.47,20.6,20.6,0,0,1-2.16-6.345c0-1.845,4.545-2.655,5.58-2.7a1.252,1.252,0,0,1,.585.135C150.075-20.025,149.985-19.53,149.9-19.035ZM149.04-7.47c0,.36-.045.495-.135.495-.18,0-.945-.81-1.935-2.79a30.77,30.77,0,0,1,2.34-4.365c-.18,1.845-.315,3.645-.315,5.13,0,.45.045.81.045,1.17Zm59.01,8.49c2.754-1.122,5.967-3.825,8.874-7.7,3.468,5.457,6.987,7.8,7.752,7.8a.823.823,0,0,0,.459-.153c1.53-.918,5.151-1.173,5.151-1.479,0-.051-.153-.153-.51-.2-4.539-.918-8.466-4.029-11.526-7.854a43.818,43.818,0,0,0,5.049-10.4c.357-1.071.867-1.02,1.428-1.275.765-.408,1.02-.765,1.02-1.071,0-.561-2.5-2.4-3.723-2.4h-.153a3.562,3.562,0,0,0-1.122.918.66.66,0,0,1-.612.255H207.948c0-5.661,0-10.353.051-11.679.1-2.244.1-1.683,1.122-2.346l.357-.255h10.149c.663,0,.816.153.816,2.193,0,4.08-.1,5.151-2.856,5.151a33.593,33.593,0,0,1-4.029-.408,4.709,4.709,0,0,0-.765-.051c-.153,0-.255,0-.255.051,0,.408,3.876,1.938,4.284,2.958.153.408.2.51.816.51,2.346-.051,5.049-1.581,5.3-4.335.1-1.071.153-2.193.153-3.111,0-.561-.051-1.02-.051-1.326,0-.561.051-.765.765-1.173.663-.357,1.02-.663,1.02-.969,0-.816-2.856-2.244-3.723-2.244-.306,0-.408.153-1.071.969a.991.991,0,0,1-.816.408h-9.792l-.2-.153a17.6,17.6,0,0,0-4.131-1.734c-.051,0-.1.051-.1.153a.9.9,0,0,0,.051.306A37.094,37.094,0,0,1,205.6-33.4c0,.969.051,3.162.051,6.018,0,9.027-.153,24.633-.408,29.58v.1c0,.969.561,1.326,1.173,1.326A1.63,1.63,0,0,0,208.05,2.04Zm-8.67-3.06c0-.816-.1-2.142-.1-2.652-.051-3.06-.153-12.9-.153-20.706,0-3.723,0-6.936.1-8.721a1.886,1.886,0,0,1,1.071-1.989,1.247,1.247,0,0,0,.714-.969c0-.408-.918-1.377-2.856-2.346a.9.9,0,0,0-.306-.051c-.459,0-1.122,1.02-1.224,1.173s-.255.2-.612.2h-5.661a31.719,31.719,0,0,0-3.621-1.479.862.862,0,0,0-.255-.1.11.11,0,0,0-.1.1,2,2,0,0,0,.1.306,28.121,28.121,0,0,1,.612,4.386c.153,3.672.153,12.5.153,14.586,0,9.027-.969,18.717-5,22.593-.561.561-.816.867-.816,1.02,0,.1.051.1.1.1.714,0,6.885-3.366,8.007-18.972h7.4c0,5.508-.051,10.506-.153,12.852-.051,1.224-.051,2.4-3.111,2.4a29.725,29.725,0,0,1-3.978-.408,3.659,3.659,0,0,0-.663-.051c-.1,0-.2,0-.2.051,0,.357,4.641,2.193,5.049,2.958.153.306.153.459.663.459,2.142-.051,4.845-1.785,4.845-4.641Zm11.73-19.227a38.41,38.41,0,0,0,4.692,12.7c-2.346,3.876-5.1,7.191-7.752,8.874,0-4.845-.1-13.923-.1-21.573Zm-21.471-5.814c0-2.6-.051-5.3-.051-7.089v-1.275c0-.663,0-1.02.408-1.275l.153-.1h6.12c.255,0,.51.051.51.357,0,1.683.051,5.2.1,9.384Zm0,10.251c.051-1.071.051-2.091.051-3.162,0-1.122-.051-3.366-.051-5.814h7.242c0,2.856.051,5.967.051,8.976Zm30.6-4.437c.408,0,.561.2.561.408A35.413,35.413,0,0,1,216.873-10.4a32.544,32.544,0,0,1-4.743-10.863Z" transform="translate(258.143 205.035)"/>
    <path id="パス_50" data-name="パス 50" d="M43.1-27.234a2.373,2.373,0,0,0-1.173.765,1.309,1.309,0,0,1-.918.357H36.465c-.051-1.122-.051-2.448-.051-3.774,0-2.091.051-4.233.1-5.355.051-1.02,0-.969.918-1.479.306-.153,1.122-.408,1.122-.969,0-.969-3.06-2.5-3.519-2.5-.561,0-1.173.663-1.377,1.02A.931.931,0,0,1,33-38.76H17.9l-.255-.153a16.411,16.411,0,0,0-3.774-1.632c-.1,0-.153.051-.153.255a1.8,1.8,0,0,1,.051.306,51.6,51.6,0,0,1,.51,5.661v2.4c0,2.193-.051,4.335-.1,5.814H9.333v-.51c0-1.02-.153-2.652-.51-2.652-.1,0-.255.1-.306.357-.612,2.958-1.224,4.386-4.131,6.987a2.362,2.362,0,0,0-.918,1.785A1.534,1.534,0,0,0,5-18.615c2.091,0,3.825-3.111,4.233-6.222H40.749c.153,0,.255.1.255.306A20.376,20.376,0,0,1,39.117-20.3c-.153.255-.2.357-.2.459h.051a1.38,1.38,0,0,0,.408-.153c1.938-.816,3.723-2.6,5.865-2.907,1.275-.153,1.785-.612,1.785-1.173C47.022-25.4,43.6-27.234,43.1-27.234Zm-8.466,5.61c-.612,0-1.275.867-1.377,1.02a.739.739,0,0,1-.663.357H18.1a27.851,27.851,0,0,0-3.978-1.785c-.051,0-.1,0-.1.1,0,.051.051.153.1.357.663,2.6.714,7.7.714,10.914,0,3.876-.1,8.823-.255,13.413v.051c0,.663.561,1.02,1.224,1.02a1.588,1.588,0,0,0,1.683-1.479V2.3c-.1-2.55-.153-6.018-.153-9.333H33.762c0,2.142,0,3.978-.051,4.743-.1,2.04-1.428,2.754-3.978,2.754A46.869,46.869,0,0,1,22.9-.306a1.267,1.267,0,0,0-.408-.051.178.178,0,0,0-.1.051c0,.357,6.273,2.6,6.936,3.417.306.357.408.51.765.51.561,0,6.222-.867,6.222-5.814,0-.816-.2-3.57-.2-4.08,0-.765-.051-1.989-.051-3.366,0-2.346.051-5.1.153-6.732.1-1.122.51-.969,1.377-1.479.306-.153.969-.459.969-1.071C38.556-20.247,34.731-21.624,34.629-21.624Zm-.561-10.914H27.642a1.067,1.067,0,0,0-.306-.2,16.192,16.192,0,0,0-3.927-1.581c-.051,0-.1.051-.1.153a1,1,0,0,0,.051.357,23.123,23.123,0,0,1,.51,4.386v3.315H16.626V-35.7c0-1.071.2-1.173.816-1.581l.2-.153H33.66c.408,0,.408.459.408.459Zm-.306,18.36H17.289c0-1.122.051-1.938.051-2.346.051-1.734,0-1.581.816-2.142l.2-.153H33.15c.561,0,.561.459.561.459C33.711-17.442,33.762-15.963,33.762-14.178Zm0,5.763H17.289V-12.8H33.762Zm.306-17.7H26.112v-1.224c0-3.264,0-3.315.765-3.825l.153-.1h7.038ZM92,.765c-.255-3.927-.408-5.61-.408-7.5,0-3.111.051-3.621.969-4.233.408-.255,1.275-.612,1.275-1.326,0-.918-2.652-2.907-3.468-2.907-.1,0-.255,0-.306.051a7.019,7.019,0,0,0-1.173,1.428.879.879,0,0,1-.714.408H79.662l-.2-.153a25.16,25.16,0,0,0-3.468-1.785,32.3,32.3,0,0,0,8.517-7.242c4.539,5.1,9.792,7.752,10.863,7.752a1.162,1.162,0,0,0,.561-.153c1.785-1.173,5.355-1.632,5.355-1.938,0-.1-.255-.153-.765-.2a25.892,25.892,0,0,1-14.688-7.038c1.632-2.091,3.213-4.437,4.845-6.936.459-.816.51-.867,1.326-1.071,1.122-.357,1.428-.714,1.428-1.071,0-.765-3.111-2.448-3.162-2.448a.647.647,0,0,0-.306-.051.647.647,0,0,0-.306.051,7.15,7.15,0,0,0-.918.612,1.262,1.262,0,0,1-.816.357H80.682l1.479-2.652c.408-.765.408-.612,1.275-.663.612-.051,1.326-.255,1.326-.663,0-1.02-4.182-2.6-4.539-2.6-.153,0-.1.153-.2.612a22.941,22.941,0,0,1-.765,2.907,62.814,62.814,0,0,1-10,16.473,10.361,10.361,0,0,0-4.9-1.377V-28.05h6.783c.765,0,.918-.357.918-.663,0-.153,0-.255-.051-.306-1.071-1.683-2.856-2.958-3.417-2.958-.459,0-1.071.765-2.04,2.244a.957.957,0,0,1-.663.408H64.413c0-3.366.051-6.171.1-7.905.051-1.785.459-1.53,1.275-1.989.561-.306.816-.561.816-.816,0-1.02-4.386-1.683-4.641-1.683-.1,0-.1.051-.1.1a1.149,1.149,0,0,0,.051.357c.2,1.02.459,3.06.459,9.027v2.907a50.862,50.862,0,0,1-8.007-.714c0,.561,1.428,2.448,2.04,2.448h.051a35.64,35.64,0,0,1,5.814-.459c-.255,5.508-7.5,16.014-10.149,18.054-.459.357-.663.612-.663.714,0,.051.051.051.1.051,1.122,0,7.548-4.743,10.761-12.495-.1,8.007-.357,17.748-.561,23.358v.1c0,1.071.561,1.53,1.224,1.53A1.772,1.772,0,0,0,64.77,1.428c-.2-6.579-.306-15.657-.357-23.562a13.477,13.477,0,0,1,3.825,3.57c.561.816,1.122,1.122,1.581,1.122.663,0,1.071-.561,1.071-1.326a3.015,3.015,0,0,0-1.122-2.091c2.55-1.989,6.171-6.375,9.18-10.965a24.837,24.837,0,0,0,4.131,7.548A34.77,34.77,0,0,1,67.473-12.444c-1.071.408-1.632.714-1.632.867a.3.3,0,0,0,.2.051,32.493,32.493,0,0,0,9.435-3.417,59.1,59.1,0,0,1,.663,6.987c0,2.5-.051,5.355-.357,9.843V2.04a.994.994,0,0,0,1.02,1.122,1.46,1.46,0,0,0,1.53-1.479c0-.918-.051-1.734-.051-2.55H89.454c0,.612-.051,1.275-.051,1.989v.051c0,.867.51,1.224,1.071,1.224A1.441,1.441,0,0,0,92,.867Zm-3.315-12.7c.714,0,.714.51.714.561.1,1.326.153,2.5.153,3.876s-.051,3.009-.1,5.355H78.285c0-1.581-.051-2.907-.051-4.131s.051-2.295.051-3.264c.051-1.734.051-1.428.918-2.04l.459-.357ZM87.873-33.4c.306,0,.408.1.408.2a43.343,43.343,0,0,1-4.131,7.4,26.566,26.566,0,0,1-4.59-6.987,3.8,3.8,0,0,0,.357-.612Zm45.672,4.83a1.666,1.666,0,0,0-.945.4c-1.215.81-5.94,1.35-6.705,1.395l.09-.09a3.379,3.379,0,0,0,.945-1.935c0-1.8-2.655-2.925-3.78-2.925-.945,0-1.62.63-1.62,1.08,0,.18.09.315.36.36.99.225,1.71.675,1.71,1.485,0,1.395-6.3,10.755-13.185,15.93-.4.315-.585.5-.585.63,0,.045.045.045.135.045a1.842,1.842,0,0,0,.765-.225c5.04-2.295,8.82-6.525,13.86-12.78a1.285,1.285,0,0,0,.855.27,3.084,3.084,0,0,0,.99-.18,26.708,26.708,0,0,1,5.4-1.08c.63,0,.9.135.9.45,0,.585-2.295,4.5-5.715,8.865a26.7,26.7,0,0,0-6.255-1.305q-.4,0-.4.135c0,.09.27.27.855.5a30.055,30.055,0,0,1,4.545,2.2C120.63-9.18,114.195-3.915,107-.945c-.765.315-1.215.63-1.215.765,0,.045.045.09.225.09a4.114,4.114,0,0,0,1.17-.225C115.9-2.745,122.16-7.56,127.65-14.13a21.248,21.248,0,0,1,2.97,2.52,2.218,2.218,0,0,0,1.575.855,1.151,1.151,0,0,0,1.125-1.26c0-.72-.27-2.115-4.14-4.005,1.53-1.98,3.06-4.14,4.545-6.39.99-1.485,1.665-2.34,2.52-2.61.765-.225,1.08-.63,1.08-1.035C137.325-27.27,133.815-28.575,133.545-28.575ZM168.735-32a1.449,1.449,0,0,0-1.485.9c0,.135.09.27.4.36,1.35.4,1.935.9,1.935,1.755,0,3.555-10.62,16.2-19.8,21.195a1.9,1.9,0,0,0-.81.63c0,.045.045.09.135.09,1.125,0,9.36-3.375,17.415-12.33a7.212,7.212,0,0,1,.63,3.33c-.045,2.655-.045,4.86-.09,8.055-.045,1.98-.315,1.53-.63,3.33a12.557,12.557,0,0,0-.225,2.115c0,2.34.9,3.6,1.62,3.6,1.125,0,1.35-2.7,1.35-3.285a7.305,7.305,0,0,0-.045-.945c0-.135-.045-3.375-.045-6.75s.045-6.885.315-7.38a.96.96,0,0,0,.135-.54,3.068,3.068,0,0,0-2.025-2.61,40.344,40.344,0,0,0,3.78-5.13c.72-1.125,2.205-2.07,2.205-3.15C173.5-30.15,170.4-32,168.735-32Zm61.02.225a4.149,4.149,0,0,0-4.14-4.095,4.072,4.072,0,0,0-4.05,4.095,4.033,4.033,0,0,0,4.05,4.05A4.111,4.111,0,0,0,229.755-31.77Zm-10.44,3.645c-.945,0-1.44,1.125-2.7,1.215-2.34.18-8.145,1.215-10.3,1.44a22.373,22.373,0,0,1-2.97.18c-1.98,0-3.6-.27-4.005-.99a.589.589,0,0,0-.54-.27.788.788,0,0,0-.81.72c0,1.125,3.96,3.465,5.715,3.465,1.035,0,1.98-.5,3.96-1.08a58.852,58.852,0,0,1,10.215-2.2c.945,0,1.53.495,1.53,1.17,0,1.08-8.73,17.91-21.375,23.22-.63.27-.945.54-.945.72,0,.09.135.18.4.18a3.036,3.036,0,0,0,.765-.135c10.305-3.1,17.46-11.385,23.31-21.78a4.983,4.983,0,0,1,2.2-2.25c.495-.36.675-.675.675-.945C224.445-26.91,220.44-28.125,219.315-28.125Zm9.09-3.69a2.727,2.727,0,0,1-2.745,2.745,2.727,2.727,0,0,1-2.745-2.745,2.727,2.727,0,0,1,2.745-2.745A2.727,2.727,0,0,1,228.4-31.815Zm25.9,14.628c.561,0,.612.255.612.663-.153,14.739-4.692,15.708-6.63,15.708-1.836,0-3.621-.969-4.947-1.428a1.852,1.852,0,0,0-.561-.153.178.178,0,0,0-.1.051c0,.459,3.468,3.06,3.978,4.233.1.306.306.51,1.275.51,2.8,0,5.1-2.04,6.681-4.794,1.632-2.907,2.193-7.089,2.5-12.087.1-1.632.051-1.53,1.071-1.938.816-.357,1.071-.663,1.071-1.02,0-.969-2.907-2.5-3.264-2.5-.255,0-.765.51-1.02.918-.153.2-.255.51-.714.51h-6.375c.306-1.581.51-3.162.714-4.743.255-2.04.612-1.683,1.122-1.938.306-.153.51-.357.51-.612,0-.153-.1-.255-.255-.357h4.539c0,.408-.051.816-.051,1.224,0,.867.51,1.275,1.02,1.275a1.428,1.428,0,0,0,1.377-1.479v-.1c-.2-2.7-.306-5.457-.306-7.548,0-.714,0-1.326.051-1.887.051-1.326.153-1.122.816-1.479.306-.2,1.071-.408,1.071-.969,0-1.377-3.315-2.6-3.366-2.6s-.561,0-1.122.969a.879.879,0,0,1-.714.408h-9.537l-.306-.2a14.758,14.758,0,0,0-3.621-1.836c-.051,0-.1.051-.1.153a.9.9,0,0,0,.051.306,39.431,39.431,0,0,1,.663,7.854c0,1.938-.051,3.978-.357,7.752v.153a.908.908,0,0,0,.969.969,1.445,1.445,0,0,0,1.479-1.275v-1.683H246.2v.765c0,.561-1.02,20.757-11.271,27.846a2.97,2.97,0,0,0-.918.867c0,.051.051.051.1.051a3.153,3.153,0,0,0,1.224-.51c7.242-3.825,10.557-11.883,12.24-20.043Zm9.384,15.555c0,.306,5.253,2.754,5.865,3.621.2.306.306.408.612.408,1.377,0,6.222-1.071,6.324-5.661,0-1.071-.2-5.661-.2-5.967-.051-4.386-.153-9.078-.153-13.923,0-3.774.051-7.65.2-11.424.1-3.111.1-2.448,1.326-3.111.408-.2.816-.612.816-.969,0-.306-.2-.561-.765-.816a36.9,36.9,0,0,0-4.386-1.02c-.1,0-.153.051-.153.1a2.079,2.079,0,0,0,.1.357c.663,3.315.714,8.109.714,23.613,0,4.386,0,8.925-.1,12.9-.051,1.632-.714,2.907-3.723,2.907a23.737,23.737,0,0,1-5.967-.969c-.2-.051-.357-.1-.408-.1C263.694-1.683,263.694-1.632,263.694-1.632ZM253.8-36.924c.612,0,.663.459.663.51.1,1.224.1,2.4.1,3.672,0,1.53,0,3.213-.051,5.3H242.478c-.051-1.377-.051-2.7-.051-4.029,0-.918,0-1.938.051-2.958.1-2.244.1-1.683.969-2.346l.2-.153Zm12.852,27.9c-.153-3.978-.255-8.364-.255-12.546,0-3.876.1-7.65.255-10.914.153-2.448.2-1.836,1.428-2.55.459-.255.663-.561.663-.867,0-1.02-4.335-1.938-4.9-1.938a.05.05,0,0,0-.051.051,1.644,1.644,0,0,1,.1.306,69.374,69.374,0,0,1,.561,10.761c0,5.2-.2,12.189-.408,17.9v.153c0,1.071.51,1.479,1.02,1.479a1.658,1.658,0,0,0,1.581-1.734Z" transform="translate(258.143 145.813)"/>
    <path id="パス_49" data-name="パス 49" d="M-165.92-16.04c.12,1.28.16,4.1.16,7.16,0,3.48-.06,7.28-.18,9.46,0,.26.18.28.5.28.48,0,.5-.12.5-.3-.04-2.7-.06-6.84-.06-10.32,0-2.46,0-4.6.02-5.66,0-.18.04-.26.22-.26.38-.02.82-.02,1.26-.02,1.08,0,2.24.04,2.76.06.22,0,.22-.36.22-.46a.833.833,0,0,0-.04-.34c-.02-.08-.12-.1-.16-.1-.84.04-1.52.06-2.24.06s-1.46-.02-2.46-.04a.472.472,0,0,0-.5.44Zm21.4,11.54a12.429,12.429,0,0,0,1.04-4.52c.1-1.74.22-4.26.28-4.74.04-.28.22-.38.44-.48.28-.12.36-.26.36-.4,0-.46-1.82-.82-2-.82-.06,0-.08.02-.08.08a.254.254,0,0,0,.02.12,10.973,10.973,0,0,1,.16,2.3c-.04,1.58-.08,2.56-.14,3.86-.24,4.94-2.64,8.28-7.72,9.46-.38.1-.54.18-.54.24s.12.1.32.1c.58,0,5.64-.58,7.8-5.06a13.483,13.483,0,0,1,2.36,3.64c.14.58.42.82.68.82.32,0,.62-.36.62-.88C-140.92-1.92-142.32-3.26-144.52-4.5ZM-154.5.42c-.06-1.8-.08-3.54-.08-5.16q0-2.73.06-5.1c.02-.82.08-.76.62-1,.24-.1.4-.22.4-.34,0-.08-.12-.18-.4-.26l-.86-.16c.54-.8,1.1-1.68,1.66-2.58.26-.42.28-.42.62-.5.46-.12.62-.26.62-.42a.455.455,0,0,0-.12-.24,10.3,10.3,0,0,0-1.68-.9c-.04,0-.02.04-.04.14a7.221,7.221,0,0,1-.4,1.44,27.206,27.206,0,0,1-4.86,7.42c-.06.06-.16.18-.16.24a.02.02,0,0,0,.02.02c.06,0,1.68-.88,3.68-3.68,0,.54-.02,1.48-.02,1.5v1.1c0,2.38-.1,5.86-.3,8.54v.1c0,.42.22.6.5.6a.8.8,0,0,0,.74-.74Zm.86-3.9c-.02,0-.02,0-.02.02a3,3,0,0,0,1.06,1.22c.1,0,.12-.16.3-.24,1.3-.62,5.9-3.14,5.9-3.5a.092.092,0,0,0-.1-.08.509.509,0,0,0-.14.04c-.84.44-2.24,1.08-3.48,1.6-.02-1.5-.02-3.32-.02-4.92,0-1.58,0-2.94.02-3.52.04-.86.02-.96.4-1.16.28-.16.44-.3.44-.44,0-.42-1.72-.7-1.88-.7a.053.053,0,0,0-.06.06.352.352,0,0,0,.02.12,18.718,18.718,0,0,1,.14,3.38c.02.7.02,1.56.02,2.52,0,1.54-.02,3.32-.04,5.06a5.93,5.93,0,0,1-2.36.54Zm4.68-8.68c-.18,0-.3,0-.3.04s.06.08.22.16a6.15,6.15,0,0,1,1.9,1.44.873.873,0,0,0,.72.5.628.628,0,0,0,.62-.64c0-.94-1.88-1.5-3.08-1.5Zm23.66,6.5a.386.386,0,0,0-.22-.1c-.08,0-.14.04-.66.56a.407.407,0,0,1-.3.12h-6.26a6.4,6.4,0,0,0-1.68-.9c-.02,0-.02.02-.02.04a.39.39,0,0,0,.02.14,19.309,19.309,0,0,1,.26,2.54c0,1.1-.02,2.44-.18,4.34v.06a.4.4,0,0,0,.42.42.658.658,0,0,0,.68-.56c0-.34-.02-.66-.02-.98h7.44V.88a.438.438,0,0,0,.44.5.622.622,0,0,0,.62-.62V.72c-.08-1.18-.14-2.34-.14-3.28,0-1.48.02-1.54.38-1.72.18-.08.34-.18.34-.32C-124.18-4.88-125.26-5.64-125.3-5.66Zm-.5,5.16h-7.46c0-.62-.02-1.2-.02-1.7,0-.52.02-.98.02-1.38.02-.74.04-.76.5-1h6.7c.28,0,.28.48.28,2.14C-125.78-1.86-125.8-1.2-125.8-.5Zm5.82-8.08c-3.44-.3-7.8-4-9.24-6.12l.36-.06c.46-.08.6-.24.6-.4a.227.227,0,0,0-.06-.16,7.982,7.982,0,0,0-1.82-.98c-.04,0-.04.02-.06.1a6.027,6.027,0,0,1-.4,1.32,24.542,24.542,0,0,1-8.08,8.48c-.2.12-.28.2-.28.24,0,.02.02.04.08.04,1.12,0,5.98-3.12,9.42-8.24l.02-.04c3.32,5,7,7.02,7.54,7.02a.386.386,0,0,0,.2-.06c.68-.54,1.98-.9,1.98-1.06C-119.72-8.54-119.8-8.56-119.98-8.58Zm-6.96-1.2a.12.12,0,0,0-.08-.02c-.16,0-.7.84-.84,1.1a.313.313,0,0,1-.22.16h-2.02a24.066,24.066,0,0,1-3.62-.28c0,.22.56.96.74.96h.02a18.681,18.681,0,0,1,2.82-.18h4.34c.28,0,.38-.16.38-.3C-125.42-8.64-126.48-9.56-126.94-9.78Zm19.68-4.66c0-.66-.84-.88-1.22-.88-.16,0-.34.02-.52.02a7.628,7.628,0,0,1-2.52-.5.929.929,0,0,0-.36-.14.053.053,0,0,0-.06.06.62.62,0,0,0,.12.26,3.142,3.142,0,0,0,2.02,1.06c.1.04.14.08.14.14a.43.43,0,0,1-.18.26c-.16.14-.76.62-1.2,1-.12.1-.18.18-.18.22,0,.02.04.04.08.04a.484.484,0,0,0,.26-.08,8.438,8.438,0,0,1,2.7-.92C-107.72-13.96-107.26-14.06-107.26-14.44Zm1.1,10a7.589,7.589,0,0,0,.58-2.84c0-1.66-.9-4.08-2.88-4.08a5.909,5.909,0,0,0-2.12.54,4.369,4.369,0,0,1-1.38.34.794.794,0,0,1-.8-.46c-.02-.04-.06-.16-.14-.16s-.26.22-.26.54a1.563,1.563,0,0,0,1.52,1.46,1.84,1.84,0,0,0,1.2-.58,3.2,3.2,0,0,1,1.84-.9c1.04,0,1.96,1.34,1.96,3.28,0,3.4-3.12,7.2-5.9,8.58-.32.16-.6.34-.6.42,0,.02.02.04.06.04A10.471,10.471,0,0,0-106.16-4.44ZM-93.08.84c-.12-1.28-.16-4.1-.16-7.16,0-3.48.06-7.28.18-9.46,0-.26-.18-.28-.48-.28-.5,0-.52.12-.52.3.04,2.7.06,6.84.06,10.32,0,2.46,0,4.6-.02,5.66,0,.18-.04.26-.22.26-.38.02-.82.02-1.26.02-1.08,0-2.24-.04-2.76-.06-.22,0-.22.36-.22.46a1.436,1.436,0,0,0,.04.34c.02.08.12.1.16.1.84-.04,1.52-.06,2.24-.06s1.48.02,2.46.04a.472.472,0,0,0,.5-.44Zm32.7-12.22a.463.463,0,0,0,.46-.5c0-.46-.5-1.18-2.26-1.18-.46,0-.96.06-.96.14,0,.06.18.1.32.16a6.8,6.8,0,0,1,1.96,1.16A.731.731,0,0,0-60.38-11.38Zm-2.04,1.16a.5.5,0,0,0,.46-.54c0-.84-1.2-1.2-2.34-1.2-.04,0-.82,0-.82.12,0,.04.18.1.3.16a6.953,6.953,0,0,1,1.92,1.22A.73.73,0,0,0-62.42-10.22Zm.14,5.62c.52,0,1.24-.66,1.24-1.8,0-1.52-1.72-3.12-4.24-3.12-.14,0-.24.02-.24.06s.16.14.6.3c1.04.38,2.74.92,2.74,2.56,0,1.28-1.5,1.42-2.36,1.6-.3.06-.5.12-.5.18,0,.1.3.1,1.72.1a2.212,2.212,0,0,1,.76.06A.639.639,0,0,0-62.28-4.6Zm-9.94-3.98A50.074,50.074,0,0,1-76.28-1.7a2.58,2.58,0,0,0-.5,1.16.321.321,0,0,0,.34.36c.4,0,.92-.52,1.2-1,1.26-2.34,2.86-5.52,3.78-7.64,1-.6,1.2-.66,1.58-.66.78,0,1.22.84,1.22,2.4,0,2.72-1.3,5.56-3.06,5.56a1.78,1.78,0,0,1-1.44-.86c-.26-.36-.42-.54-.5-.54q-.06,0-.06.12a2.852,2.852,0,0,0,.12.62c.14.54-.08,1.26.66,1.52a2.765,2.765,0,0,0,.86.14c1.94,0,4.3-2.12,4.3-6.26,0-.86-.04-3.28-1.96-3.28a4.053,4.053,0,0,0-1.34.3,1.224,1.224,0,0,0,.1-.24,9.874,9.874,0,0,0,.62-2.6c0-.36-.18-1.26-1-1.26-.5,0-1.14.38-1.14.58,0,.16.2.26.4.3.5.08.66.52.66,1.14a8.285,8.285,0,0,1-.42,2.34,8.6,8.6,0,0,1-2.74.58,1.51,1.51,0,0,1-1.28-.52c-.14-.18-.24-.3-.32-.3-.1,0-.14.14-.14.54A1.426,1.426,0,0,0-74.8-7.72,6.514,6.514,0,0,0-72.22-8.58Zm20.14,2.26.04-.44c.26-.46.5-.9.72-1.24.34-.54.98-1.22.98-1.7,0-.32-.28-.54-1.16-.54a25.475,25.475,0,0,0,.32-2.7,1.759,1.759,0,0,0-1.66-2c-.26,0-.66.12-.66.24,0,.06.1.14.32.28a2.439,2.439,0,0,1,1.16,2.4c0,.38-.02.76-.04,1.16,0,.28-.04.58-.06.9l-.06.04A10.34,10.34,0,0,0-54.5-7.96a3.033,3.033,0,0,1-1.12.82c-.3.12-.4.3-.4.48a1.588,1.588,0,0,0,.36.8c.2.32.74,1.12,1.14,1.88-.74,1.06-1.9,3.04-1.9,3.8,0,.28.12.4.3.4.32,0,.8-.44,1-1.18a7.177,7.177,0,0,1,1-2.24A15.9,15.9,0,0,1-52.94-.18c.08.82.44,1.2.76,1.2.24,0,.46-.26.46-.72a2.242,2.242,0,0,0-.06-.48,17.7,17.7,0,0,1-.44-3.7c0-.76.08-1.72.08-1.78.06-.06.08-.12.14-.18,2.04-2.12,3.94-2.82,5.48-2.82,1.74,0,3.74.94,3.74,3.1,0,3.52-5,5.72-5.38,5.88s-.66.32-.66.38c0,.02.04.04.1.04.86,0,7.06-2.14,7.06-6.28,0-2.18-2.08-3.86-4.56-3.86a7.976,7.976,0,0,0-5.62,2.8Zm-.34-.84a29.275,29.275,0,0,1-1.86,2.84,14.7,14.7,0,0,1-.94-1.84c0-.04-.04-.1-.04-.16s.04-.14.22-.18a1.2,1.2,0,0,0,1.1-.86A3.519,3.519,0,0,1-52.18-9.2C-52.24-8.56-52.34-7.88-52.42-7.16Zm-.42,4.84c0,.14-.02.2-.06.2a7.375,7.375,0,0,1-.94-1.5c.36-.54.78-1.06,1.22-1.6a22.81,22.81,0,0,0-.22,2.5Zm.98-5.8.2-1.3c.04,0,.08-.02.12-.02a.2.2,0,0,1,.22.2.838.838,0,0,1-.16.42ZM-22.28-4.6c.52,0,1.24-.66,1.24-1.8,0-1.52-1.72-3.12-4.24-3.12-.14,0-.24.02-.24.06s.16.14.6.3c1.04.38,2.74.92,2.74,2.56,0,1.28-1.5,1.42-2.36,1.6-.3.06-.5.12-.5.18,0,.1.3.1,1.72.1a2.212,2.212,0,0,1,.76.06A.639.639,0,0,0-22.28-4.6Zm-9.94-3.98A50.073,50.073,0,0,1-36.28-1.7a2.58,2.58,0,0,0-.5,1.16.321.321,0,0,0,.34.36c.4,0,.92-.52,1.2-1,1.26-2.34,2.86-5.52,3.78-7.64,1-.6,1.2-.66,1.58-.66.78,0,1.22.84,1.22,2.4,0,2.72-1.3,5.56-3.06,5.56a1.78,1.78,0,0,1-1.44-.86c-.26-.36-.42-.54-.5-.54q-.06,0-.06.12a2.852,2.852,0,0,0,.12.62c.14.54-.08,1.26.66,1.52a2.765,2.765,0,0,0,.86.14c1.94,0,4.3-2.12,4.3-6.26,0-.86-.04-3.28-1.96-3.28a4.053,4.053,0,0,0-1.34.3,1.224,1.224,0,0,0,.1-.24,9.873,9.873,0,0,0,.62-2.6c0-.36-.18-1.26-1-1.26-.5,0-1.14.38-1.14.58,0,.16.2.26.4.3.5.08.66.52.66,1.14a8.285,8.285,0,0,1-.42,2.34,8.6,8.6,0,0,1-2.74.58,1.51,1.51,0,0,1-1.28-.52c-.14-.18-.24-.3-.32-.3-.1,0-.14.14-.14.54A1.426,1.426,0,0,0-34.8-7.72,6.514,6.514,0,0,0-32.22-8.58Zm26.78,4.2a42.422,42.422,0,0,1,.92-4.26,5.052,5.052,0,0,0,.08-.92c0-1.56-.8-2.4-2.04-2.4-1.26,0-3.18.88-5.44,3.44.4-.6.66-.96.66-1.26,0-.22-.16-.4-.64-.44h-.12c0-.04.02-.06.02-.1.04-.32.12-.86.24-1.42a7.044,7.044,0,0,0,.2-1.46,2.282,2.282,0,0,0-1.82-2.12c-.34,0-.78.14-.78.34,0,.14.18.26.44.32.68.16,1.24.48,1.24,2.08,0,.62-.08,1.32-.14,2.06a3.818,3.818,0,0,1-.04.4c-2.82.7-3.38,1.18-3.38,1.94,0,.38.14.98,1.28,3.36-.36.58-1.66,2.78-1.66,3.7,0,.26.12.4.28.4.34,0,.94-.6,1.14-1.46a12.086,12.086,0,0,1,.62-1.68,16.482,16.482,0,0,1,1,2.96c.02,1.04.46,1.56.82,1.56.24,0,.44-.24.44-.72a3.048,3.048,0,0,0-.16-.84,10.064,10.064,0,0,1-.4-3.04,27.635,27.635,0,0,1,.22-3.28c1.78-2.32,4.3-4.14,5.84-4.14.86,0,1.38.56,1.38,1.68a5.008,5.008,0,0,1-.12,1.02C-5.64-7.22-6.3-5.78-6.42-4.5a5.43,5.43,0,0,0-.02.56c0,1.82.96,2.76,2.26,2.76,2.46,0,4.5-2.98,4.5-3.36C.32-4.58.3-4.6.28-4.6c-.08,0-.3.16-.7.58A5.2,5.2,0,0,1-3.76-2.2c-1,0-1.68-.68-1.68-2.04Zm-7.44-4.08a15.628,15.628,0,0,1-1.68,3.32,9.157,9.157,0,0,1-.96-2.82c0-.82,2.02-1.18,2.48-1.2a.556.556,0,0,1,.26.06C-12.8-8.9-12.84-8.68-12.88-8.46Zm-.38,5.14c0,.16-.02.22-.06.22-.08,0-.42-.36-.86-1.24a13.676,13.676,0,0,1,1.04-1.94c-.08.82-.14,1.62-.14,2.28,0,.2.02.36.02.52Zm27.38-6.86a3.54,3.54,0,0,1-.46.02,4.424,4.424,0,0,1-1.44-.24c-.4-.14-1.08-.46-1.4-.58a1.614,1.614,0,0,0-.44-.12c-.06,0-.08.02-.08.06a3.349,3.349,0,0,0,3.2,1.7,6.577,6.577,0,0,0,1.06-.12c0,1.98.04,3.98.06,4.88,0,.34,0,.7-.02,1.08a7.222,7.222,0,0,0-1.46-.14c-2.04,0-3.46.9-3.46,1.96,0,.9,1.22,2.02,2.66,2.02a3.232,3.232,0,0,0,3.06-2.9A5.362,5.362,0,0,1,17.58-.64c.2.34.4.46.56.46.26,0,.44-.3.44-.64,0-.64-1.26-1.88-3.14-2.48,0-.58-.06-1.22-.08-1.8-.04-.62-.08-1.84-.08-3.24,0-.42.02-.86.02-1.3.34-.08,2.68-.7,2.68-1.78a.585.585,0,0,0-.36-.54c-.14-.04-.56-.12-.82-.22-.2-.06-.86-.38-1.26-.56a1.97,1.97,0,0,0,.04-.34c0-.76-1.02-1.4-1.38-1.4a.927.927,0,0,0-.76.56c0,.12.22.18.56.3.4.16.58.16.58,1.92v.28c0,.38-.02.76-.02,1.16ZM5.46.68c.24,0,.4-.2.4-.52a1.147,1.147,0,0,0-.1-.48,2.693,2.693,0,0,1-.16-1A16.564,16.564,0,0,1,7.32-7.04a.53.53,0,0,0,.06-.2c0-.08-.04-.12-.08-.12-.32,0-1.52,2.6-2.02,3.8-.12.28-.2.4-.26.4-.2,0-.26-1.02-.26-1.32a13.42,13.42,0,0,1,1-4.2,8.594,8.594,0,0,0,.84-2.44c0-1.34-1.46-3.2-2.16-3.2-.02,0-.22,0-.22.08,0,.06.14.18.26.34a4.287,4.287,0,0,1,.96,2.62,11.224,11.224,0,0,1-.38,2.22,22.644,22.644,0,0,0-1,5.42C4.06-1.32,4.74.68,5.46.68Zm9.06-3.5a2.573,2.573,0,0,1-2.4,2.28c-.86,0-1.82-.5-1.82-1.14,0-.92,1.4-1.34,2.66-1.34A6.418,6.418,0,0,1,14.52-2.82Zm3.18-10.5a.5.5,0,0,0,.48-.54c0-.92-1.6-1.34-2.58-1.34-.26,0-.44.04-.44.08s.18.12.3.18a6.532,6.532,0,0,1,1.76,1.36A.649.649,0,0,0,17.7-13.32Zm2.06-.94a.5.5,0,0,0,.46-.54c0-.9-1.4-1.28-2.48-1.28-.38,0-.58.04-.58.08s.18.1.3.16a6.528,6.528,0,0,1,1.82,1.32A.683.683,0,0,0,19.76-14.26Zm-4.24,1.7c1.18.86,1.36,1,1.36,1.26,0,.12-.14.5-1.56.88.02-.58.08-1.16.14-1.72ZM29.24-1.78,29.2-3.94a7.927,7.927,0,0,1,4.82-2.2c2.36,0,2.48,1.32,2.48,1.68a2.935,2.935,0,0,1-3.1,2.58,1.378,1.378,0,0,1-1.5-1.56,3.936,3.936,0,0,1,.2-1.18,1.494,1.494,0,0,0,.06-.4c0-.1-.02-.18-.06-.18a3.793,3.793,0,0,0-.78,2.32A1.865,1.865,0,0,0,33.36-.9c1.68,0,4.08-1.34,4.08-3.42,0-1.4-1.22-2.34-3.2-2.34a9.466,9.466,0,0,0-5.06,1.84c-.02-1.28-.06-2.64-.06-3.92,1.38-.74,1.92-1.04,1.92-1.72a.531.531,0,0,0-.44-.56,13.758,13.758,0,0,1-1.42-.34c.02-.22.02-.4.02-.54-.04-.7-1-1.18-1.6-1.18-.46,0-.74.3-.74.48,0,.1.08.16.26.16,1.04,0,1.18.76,1.32,3.2a4.467,4.467,0,0,1-2.22.64,5.858,5.858,0,0,1-1.64-.22.607.607,0,0,0-.22-.06.092.092,0,0,0-.08.1c0,.32.32,1.08,1.66,1.08a5.715,5.715,0,0,0,2.54-.72c.04.9.08,1.86.08,2.86,0,.38,0,.76-.02,1.14-1.22.78-3.4,2.18-3.92,2.18-.12,0-.16-.08-.22-.12a.1.1,0,0,0-.08-.04,1.284,1.284,0,0,0-.68.94c0,.28.2.46.64.46a4.328,4.328,0,0,0,1.88-.64,2.913,2.913,0,0,1,1.72,1,.682.682,0,0,0,.58.38c.46,0,.78-.58.78-1.44Zm9.42-7.36a.588.588,0,0,0,.44-.52c0-.6-.98-1.48-2.32-1.48A3.342,3.342,0,0,0,34.12-9.8c0,.04.04.06.08.06a1.157,1.157,0,0,0,.46-.2,2.738,2.738,0,0,1,1.46-.46c.24,0,1.04.06,1.04.6a2.18,2.18,0,0,1-.7,1.18c-.12.12-.22.24-.22.3,0,.02.02.04.06.04a.852.852,0,0,0,.34-.16,4.491,4.491,0,0,1,.78-.42C38.14-9.18,38.2-8.98,38.66-9.14ZM28.5-3.46c-.02.42-.04.82-.08,1.24-.02.3-.02.48-.58.48a8.694,8.694,0,0,1-1.3-.14A25.168,25.168,0,0,0,28.5-3.46Zm.64-6.9a7.059,7.059,0,0,1,.04-.72c.34.16.9.46.9.7,0,.12-.04.24-.94.78Zm28.52,7a.053.053,0,0,0-.06-.06.476.476,0,0,0-.26.16A9.373,9.373,0,0,1,51.38-.52c-3.64,0-3.68-3.36-3.68-4.32a47.25,47.25,0,0,1,.92-7.2,4.04,4.04,0,0,0,.06-.66,1.927,1.927,0,0,0-1.94-2.06c-.12,0-.2.04-.2.12,0,.06.08.18.26.36a3.26,3.26,0,0,1,.6,2.34c0,2.22-.46,4.48-.46,6.7a13.184,13.184,0,0,0,.14,1.98C47.5-.68,49.16.58,51.22.58,54.7.58,57.66-3.02,57.66-3.36ZM68.44-5.9c1.76-1.32,3.26-2.16,4.62-2.16,1.52,0,1.86.92,1.86,1.36,0,.24-.18,1.5-2.24,1.5a3.1,3.1,0,0,1-2.44-1.06c-.22-.24-.36-.34-.44-.34a.094.094,0,0,0-.1.1,3.613,3.613,0,0,0,3.28,2.18c1.56,0,2.92-.92,2.92-2.32,0-1.16-1.12-2.08-2.9-2.08-1.64,0-3.08.82-5.02,2.14l-.02-.02a4.909,4.909,0,0,1-.9-1.6c0-.28.24-.66.84-.66a8.976,8.976,0,0,1,1.9.38,3.536,3.536,0,0,0,.72.14.776.776,0,0,0,.78-.84c0-.72-.94-1.2-1.3-1.2-.04,0-.08.02-.08.04,0,.06.04.12.12.24a.97.97,0,0,1,.18.46c0,.28-.36.32-.74.32-.44,0-1.06-.06-1.56-.06-1.44,0-1.72.86-1.72,1.2a1.189,1.189,0,0,0,.46.84,10.445,10.445,0,0,1,.86,1.08c-.96.64-1.42.94-2.08.94a2.077,2.077,0,0,1-.68-.1,1.015,1.015,0,0,0-.18-.04.2.2,0,0,0-.22.22c0,.42.72.92,1.28.92.76,0,1.42-.52,2.36-1.24.06.1.1.2.16.28,1.7,2.86,2.04,4.12,2.06,5.2,0,.58.28.84.54.84.28,0,.58-.3.58-.86,0-1.36-1.78-4.18-2.64-5.42ZM94.16-4.38a42.421,42.421,0,0,1,.92-4.26,5.052,5.052,0,0,0,.08-.92c0-1.56-.8-2.4-2.04-2.4-1.26,0-3.18.88-5.44,3.44.4-.6.66-.96.66-1.26,0-.22-.16-.4-.64-.44h-.12c0-.04.02-.06.02-.1.04-.32.12-.86.24-1.42a7.044,7.044,0,0,0,.2-1.46,2.282,2.282,0,0,0-1.82-2.12c-.34,0-.78.14-.78.34,0,.14.18.26.44.32.68.16,1.24.48,1.24,2.08,0,.62-.08,1.32-.14,2.06a3.817,3.817,0,0,1-.04.4c-2.82.7-3.38,1.18-3.38,1.94,0,.38.14.98,1.28,3.36-.36.58-1.66,2.78-1.66,3.7,0,.26.12.4.28.4.34,0,.94-.6,1.14-1.46a12.086,12.086,0,0,1,.62-1.68,16.483,16.483,0,0,1,1,2.96c.02,1.04.46,1.56.82,1.56.24,0,.44-.24.44-.72a3.048,3.048,0,0,0-.16-.84,10.064,10.064,0,0,1-.4-3.04,27.635,27.635,0,0,1,.22-3.28c1.78-2.32,4.3-4.14,5.84-4.14.86,0,1.38.56,1.38,1.68a5.007,5.007,0,0,1-.12,1.02c-.28,1.44-.94,2.88-1.06,4.16a5.429,5.429,0,0,0-.02.56c0,1.82.96,2.76,2.26,2.76,2.46,0,4.5-2.98,4.5-3.36,0-.04-.02-.06-.04-.06-.08,0-.3.16-.7.58A5.2,5.2,0,0,1,95.84-2.2c-1,0-1.68-.68-1.68-2.04ZM86.72-8.46a15.628,15.628,0,0,1-1.68,3.32,9.157,9.157,0,0,1-.96-2.82c0-.82,2.02-1.18,2.48-1.2a.556.556,0,0,1,.26.06C86.8-8.9,86.76-8.68,86.72-8.46Zm-.38,5.14c0,.16-.02.22-.06.22-.08,0-.42-.36-.86-1.24a13.676,13.676,0,0,1,1.04-1.94c-.08.82-.14,1.62-.14,2.28,0,.2.02.36.02.52Zm27.38-6.86a3.54,3.54,0,0,1-.46.02,4.424,4.424,0,0,1-1.44-.24c-.4-.14-1.08-.46-1.4-.58a1.614,1.614,0,0,0-.44-.12c-.06,0-.08.02-.08.06a3.349,3.349,0,0,0,3.2,1.7,6.577,6.577,0,0,0,1.06-.12c0,1.98.04,3.98.06,4.88,0,.34,0,.7-.02,1.08a7.222,7.222,0,0,0-1.46-.14c-2.04,0-3.46.9-3.46,1.96,0,.9,1.22,2.02,2.66,2.02A3.232,3.232,0,0,0,115-2.56a5.362,5.362,0,0,1,2.18,1.92c.2.34.4.46.56.46.26,0,.44-.3.44-.64,0-.64-1.26-1.88-3.14-2.48,0-.58-.06-1.22-.08-1.8-.04-.62-.08-1.84-.08-3.24,0-.42.02-.86.02-1.3.34-.08,2.68-.7,2.68-1.78a.585.585,0,0,0-.36-.54c-.14-.04-.56-.12-.82-.22-.2-.06-.86-.38-1.26-.56a1.971,1.971,0,0,0,.04-.34c0-.76-1.02-1.4-1.38-1.4a.927.927,0,0,0-.76.56c0,.12.22.18.56.3.4.16.58.16.58,1.92v.28c0,.38-.02.76-.02,1.16ZM105.06.68c.24,0,.4-.2.4-.52a1.147,1.147,0,0,0-.1-.48,2.693,2.693,0,0,1-.16-1,16.564,16.564,0,0,1,1.72-5.72.53.53,0,0,0,.06-.2c0-.08-.04-.12-.08-.12-.32,0-1.52,2.6-2.02,3.8-.12.28-.2.4-.26.4-.2,0-.26-1.02-.26-1.32a13.42,13.42,0,0,1,1-4.2,8.594,8.594,0,0,0,.84-2.44c0-1.34-1.46-3.2-2.16-3.2-.02,0-.22,0-.22.08,0,.06.14.18.26.34a4.287,4.287,0,0,1,.96,2.62,11.224,11.224,0,0,1-.38,2.22,22.644,22.644,0,0,0-1,5.42C103.66-1.32,104.34.68,105.06.68Zm9.06-3.5a2.573,2.573,0,0,1-2.4,2.28c-.86,0-1.82-.5-1.82-1.14,0-.92,1.4-1.34,2.66-1.34A6.418,6.418,0,0,1,114.12-2.82Zm1-9.74c1.18.86,1.36,1,1.36,1.26,0,.12-.14.5-1.56.88.02-.58.08-1.16.14-1.72ZM132.98-7.7c-.06-1.24-.14-2.7-.14-3.64,0-1,.08-1.1.32-1.26.12-.08.48-.22.48-.48,0-.12-.06-.42-1.18-1.06a.365.365,0,0,0-.18-.04.15.15,0,0,0-.1.02,1.611,1.611,0,0,0-.38.48.336.336,0,0,1-.26.18h-1.88a13.682,13.682,0,0,0,.88-1.32.446.446,0,0,1,.38-.28c.4-.06.6-.2.6-.38a.414.414,0,0,0-.2-.28,10.816,10.816,0,0,0-1.46-.64.151.151,0,0,0-.08-.02c-.04,0-.06.02-.06.54a5.713,5.713,0,0,1-.5,2.38h-.44l-.06-.04a6.156,6.156,0,0,0-1.52-.82c-.02,0-.04.02-.04.06a.707.707,0,0,1,.02.12,26.555,26.555,0,0,1,.24,2.76v.5l-.2.1c-2.46,1.38-4.34,2.28-5.4,2.34-.12.02-.16.02-.16.06,0,.08.96,1.12,1.24,1.12.18,0,.2-.26.48-.42a30.754,30.754,0,0,0,3.9-2.86l.14-.12c0,.86,0,1.94-.12,3.4v.06a.362.362,0,0,0,.38.4.586.586,0,0,0,.58-.54V-8h3.7c0,.14-.02.28-.02.42a.452.452,0,0,0,.46.5.579.579,0,0,0,.58-.58Zm5.08,2.94c.34,0,.44-.1.44-.22a3.015,3.015,0,0,0-1.7-1.5.273.273,0,0,0-.22.08,8.517,8.517,0,0,0-.82.98.379.379,0,0,1-.32.18h-4.92c0-.3,0-.54.02-.72.04-.54.3-.44.64-.66.12-.08.2-.16.2-.24,0-.04,0-.34-1.76-.44-.14,0-.18.02-.18.08v.04a7.482,7.482,0,0,1,.2,1.28v.66h-.78c-1.16,0-5.24-.06-7.32-.32,0,.26.54,1.02.9,1.02h.02c1.82-.18,5.2-.22,6.32-.22h.58A18.374,18.374,0,0,1,121.32.68c-.26.08-.38.16-.38.22,0,.04.06.06.16.06.32,0,4.22-.56,8.52-4.44-.04,1.5-.08,3.28-.14,4.1V.7c0,.38.2.52.42.52.08,0,.62-.14.62-.62V.58c-.02-.66-.02-2-.02-3.34V-4.34C132.66-1.48,136.62.5,137.3.5a.287.287,0,0,0,.2-.08c.6-.56,1.96-.92,1.96-1.06,0-.02-.06-.04-.24-.06a13.556,13.556,0,0,1-8.58-4.06Zm-6.08-5.82c0,.64,0,1.32-.02,2.06h-3.72c-.02-.68-.02-1.4-.02-2.06Zm-.26-2.38a.207.207,0,0,1,.22.22c.04.48.04,1.02.04,1.64h-3.76c0-.28,0-.56.02-.82.04-.88.04-.7.38-.96l.08-.08Zm5.94,5.48a.531.531,0,0,0,.54-.56c0-1.52-4.88-2.1-4.98-2.1-.06,0-.12.02-.12.06s.04.06.12.1a11.522,11.522,0,0,1,3.62,2.08A1.2,1.2,0,0,0,137.66-7.48ZM133.2-11.3c1.06-.4,3.2-1.5,3.74-1.78a.447.447,0,0,1,.2-.06,1.376,1.376,0,0,1,.26.04.75.75,0,0,0,.2.02c.26,0,.4-.1.4-.22,0-.44-1.32-1.3-1.4-1.3-.02,0-.04.02-.06.08-.16.46-1.02,1.48-3.38,3.04-.06.04-.08.08-.08.1a.073.073,0,0,0,.08.08Zm-10.78-3.08a2.306,2.306,0,0,0,.22.18,8.948,8.948,0,0,1,1.84,1.76.96.96,0,0,0,.72.52c.28,0,.48-.26.48-.6,0-1.4-2.98-1.88-3.26-1.88ZM157.26-3.36a.053.053,0,0,0-.06-.06.476.476,0,0,0-.26.16,9.373,9.373,0,0,1-5.96,2.74c-3.64,0-3.68-3.36-3.68-4.32a47.25,47.25,0,0,1,.92-7.2,4.039,4.039,0,0,0,.06-.66,1.927,1.927,0,0,0-1.94-2.06c-.12,0-.2.04-.2.12,0,.06.08.18.26.36a3.26,3.26,0,0,1,.6,2.34c0,2.22-.46,4.48-.46,6.7a13.184,13.184,0,0,0,.14,1.98c.42,2.58,2.08,3.84,4.14,3.84C154.3.58,157.26-3.02,157.26-3.36ZM168.62-2.1a8.023,8.023,0,0,1-.08-.84v-.22a23.083,23.083,0,0,1,.42-2.62,3.757,3.757,0,0,0,.08-.56c0-.08,0-.12-.04-.12s-.12.14-.3.54c-.34.78-.8,2.02-1.2,2.72a.738.738,0,0,1-.66.42c-.26,0-2.52-.44-2.52-4.2a11.772,11.772,0,0,1,.3-2.6,3.522,3.522,0,0,0,.08-.68,1.6,1.6,0,0,0-1.16-1.68q-.12,0-.12.18c0,.04.02.08.02.14a5.413,5.413,0,0,1,.08,1.02c0,.18,0,.38-.02.58-.04.78-.1,1.56-.1,2.32a6.656,6.656,0,0,0,2.24,5.58,3.36,3.36,0,0,0,2,.86c.92,0,.98-.56.98-.78Zm7.76-3.2c.32,0,.66-.32.66-.94,0-1.9-2.24-4.12-4.96-4.12-.24,0-.38.04-.38.1,0,.08.28.22.88.36a4.364,4.364,0,0,1,3.22,3.88C175.84-5.54,176.1-5.3,176.38-5.3Z" transform="translate(432 81.813)"/>
  </g>
</svg>
