<?xml version="1.0" encoding="utf-8"?>
<!-- Generator: Adobe Illustrator 27.3.1, SVG Export Plug-In . SVG Version: 6.00 Build 0)  -->
<svg version="1.1" id="レイヤー_1" xmlns="http://www.w3.org/2000/svg" xmlns:xlink="http://www.w3.org/1999/xlink" x="0px"
	 y="0px" viewBox="0 0 437 269.9" style="enable-background:new 0 0 437 269.9;" xml:space="preserve">
<style type="text/css">
	.st0{fill:#FCFCEF;}
</style>
<g id="グループ_307" transform="translate(112.315 139.647)">
	<path id="パス_47" class="st0" d="M278.6-87.4c-20.6-15.7-44.3-13.2-56.6-23.9s-17.4-28-44.9-28.3C149.6-140,39.6-94.3-5.3-71.8
		S-110.6-22.6-112.2,7.8s23.8,66.3,48.9,67.9c25.1,1.6,37.4,8.9,76.1,23.4s53.3,39.9,148.2,28.2s116.6-54,126-83.8
		c9.4-29.8,42.4-29.8,37.2-79.5S278.6-87.4,278.6-87.4z"/>
	<g id="グループ_306">
		<path id="パス_53" d="M44.3,53.8c0-0.5-0.6-0.8-1.5-0.8c-0.2,0-0.3,0-0.5,0c-1.8,0.6-3.7,1-5.6,1.1c-0.8,0-1.7-0.1-2.5-0.4
			c-0.2-0.1-0.5-0.2-0.7-0.2c-0.1,0-0.2,0-0.2,0.1c0,0.5,1.3,1.9,3.7,1.9c1.2,0,4.2-0.8,6.2-1C44,54.5,44.3,54.1,44.3,53.8z
			 M41.6,73.7c1.7,0.7,3.1,2,4,3.6c0.2,0.4,0.5,0.6,0.9,0.6c0.5,0,0.9-0.4,0.9-0.9c0,0,0,0,0,0c0-1.1-2.2-3.4-5.7-4.6
			c-0.1-0.8-0.2-1.5-0.4-2.3c-0.4-1.9-0.6-3.8-0.6-5.8C44.8,63.1,45,61,45,61c0-0.4-0.3-0.8-0.7-0.9c-0.3-0.1-0.7-0.1-1-0.3
			c-0.7-0.3-1.3-0.7-1.9-1.2c0.1-0.2,0.1-0.5,0.1-0.7c-0.1-0.9-0.9-1.7-1.9-1.8c-0.2,0-0.6,0-0.6,0.5c0,0.2,0.1,0.4,0.3,0.6
			c0.3,0.4,0.4,0.8,0.4,1.3c0,0.4,0,1-0.1,1.9c0,0.9-0.1,1.7-0.1,2.6c-1,0.2-1.9,0.3-2.9,0.4c-1.2,0-2.4-0.5-3.3-1.2
			c-0.2-0.1-0.5-0.4-0.6-0.4c-0.1,0-0.1,0.1-0.1,0.3c0,1.3,1.3,3,4.4,3c0.9,0,1.8-0.1,2.7-0.3c0,1.9,0.2,3.9,0.5,5.8
			c0.1,0.5,0.2,1,0.2,1.5c-0.8-0.2-1.7-0.3-2.6-0.3c-3.1,0-6.3,1.2-6.3,3.4c0,1.8,2.2,3.6,4.7,3.6C38.8,78.6,41.1,76.5,41.6,73.7z
			 M24.5,78.9c0.4,0,0.6-0.3,0.6-0.8c0-0.4-0.1-0.8-0.3-1.2c-0.2-0.5-0.3-1.1-0.3-1.7c0-3.2,1.9-8.6,3.2-11.4
			c0.1-0.2,0.2-0.5,0.3-0.8c0-0.1,0-0.1-0.1-0.1c-0.1,0-0.4,0.3-0.5,0.6c-1.4,2.8-2.6,5.5-3.5,7.3c-0.1,0.3-0.3,0.4-0.4,0.4
			c-0.1,0-0.4-0.3-0.4-1.7c0.2-2.9,0.9-5.7,1.9-8.4c0.5-1.2,0.8-2.5,0.9-3.7c0-2.1-1.5-3.8-3.5-4.1c-0.2,0-0.3,0.1-0.3,0.2
			c0,0.1,0.1,0.4,0.4,0.6c1,1.1,1.5,2.5,1.4,3.9c-0.1,1.6-0.3,3.2-0.8,4.7c-0.8,2.8-1.3,5.7-1.4,8.6C21.8,76,23.3,78.9,24.5,78.9z
			 M41.3,59.1c0.5,0.3,1.6,1.3,1.6,2c0,0.5-0.8,1.2-2.2,1.7C40.8,61.5,41,60.3,41.3,59.1L41.3,59.1z M40.1,73.2
			c-0.2,2.3-2.2,4-4.5,4c-2,0-3.2-1-3.2-2.1c0-1.8,3.2-2.3,4.8-2.3C38.2,72.7,39.2,72.9,40.1,73.2z M72.9,59.1
			c3.8,0.5,6.7,3.8,6.7,7.6c0,5.7-6.1,10-12.2,11.4c-1,0.3-1.4,0.5-1.4,0.6c0,0.1,0.3,0.1,0.6,0.1c3.4,0,15-3.2,15-11.9
			c-0.1-4.7-3.7-8.6-8.4-9c0.1-0.6,0.2-1.3,0.2-1.9c0-3.5-2.4-3.5-2.7-3.5c-0.5,0-1.2,0.4-1.2,0.7c0,0.3,0.8,0.3,1,0.4
			c0.6,0.5,0.9,1.5,0.9,3c0,0.4,0,0.8-0.1,1.3c-3,0.2-5.8,1.4-8.1,3.2c-0.7-1.7-1.2-3.3-1.7-4.4c-0.3-0.9-1.1-1.6-2-1.8
			c-0.1,0-0.2,0.1-0.2,0.3c0,0.1,0,0.3,0.1,0.4c0.5,1,1,2.6,1.6,4.1c0.3,0.8,0.6,1.7,1,2.5c-2.2,2.1-3.6,5-3.8,8.1
			c0,2.2,1.1,4,2.8,4c2.7,0,6.2-4.2,6.9-5.3c0.6,0.3,1.3,0.4,1.9,0.5c0.6,0,1-0.4,1-0.6c0-0.3-0.4-0.9-1.9-1.4
			C70.7,65,72,62.1,72.9,59.1z M71.2,59c-0.6,2.9-1.8,5.7-3.4,8.2c-1.9-0.9-3.2-3-4.1-5.1C65.8,60.3,68.4,59.2,71.2,59L71.2,59z
			 M66.9,68.7c-1.8,2.6-4.2,4.2-5.4,4.2c-1.4,0-2.1-2.1-2.1-3.2c0-1.9,1.1-4.1,3.1-6.3C63.4,65.5,65,67.4,66.9,68.7z M104.6,52.9
			c0,0.4-0.3,0.7-0.9,1c-0.8,0.4-1.7,0.8-2.4,1.3c-1.4,0.8-2.3,2.3-2.4,3.9c0,0.2,0,0.3,0,0.5c0.1,0.5,0.1,1.1,0.1,1.7
			c0,0.4,0,0.8-0.1,1.2c-0.3,2.2-0.6,4.5-0.6,6.8c0,4.4,2.4,5.2,2.8,5.2c0.4,0,0.8-0.3,1.4-1c1.7-2.1,2.3-3.1,4-4.4
			c0.7-0.6,1.6-0.9,2.6-0.9c2.3-0.1,4.2,1.6,4.3,3.9c0,0,0,0,0,0c0,2.1-1.9,6.4-10.1,8.4c-0.6,0.1-1.2,0.3-1.7,0.5c0,0,0.1,0,0.3,0
			c6,0,13.4-3.6,13.4-9c0-3.5-3.8-5.1-5.7-5.1c-1.3,0-2.6,0.4-3.7,1.2c-1.7,1.2-2.7,2.3-3.6,2.9c-0.4,0.3-0.9,0.5-1.4,0.6
			c-0.5,0-1.4-0.2-1.4-3.3c0-1.5,0.2-3,0.5-4.5c0.3-1.1,0.5-2.2,0.5-3.3c0-0.5-0.1-1-0.2-1.5c0-0.3-0.1-0.5-0.1-0.8
			c0-2.7,2.3-2.8,3.2-2.8c0.7,0,1.4,0.1,2.1,0.3c0.4,0.2,0.8,0.3,1.2,0.3c0.7-0.1,1.3-0.8,1.2-1.5c0-2.3-4.3-4-4.5-4
			c-0.1,0-0.1,0.1-0.1,0.1c0,0.1,0.2,0.4,0.3,0.5c0.4,0.5,0.7,1.1,0.9,1.7L104.6,52.9z M148.4,70.5c0.1-2.3,1.2-5,1.7-7.7
			c0.1-0.5,0.1-1.1,0.1-1.7c0-2.8-1.4-4.3-3.7-4.3c-2.3,0-5.7,1.6-9.8,6.2c0.7-1.1,1.2-1.7,1.2-2.3c0-0.4-0.3-0.7-1.2-0.8h-0.2
			c0-0.1,0-0.1,0-0.2c0.1-0.6,0.2-1.5,0.4-2.6c0.2-0.9,0.3-1.7,0.4-2.6c0-2-2-3.8-3.3-3.8c-0.6,0-1.4,0.3-1.4,0.6
			c0,0.3,0.3,0.5,0.8,0.6c1.2,0.3,2.2,0.9,2.2,3.7c0,1.1-0.1,2.4-0.3,3.7c0,0.2,0,0.5-0.1,0.7c-5.1,1.3-6.1,2.1-6.1,3.5
			c0,0.7,0.3,1.8,2.3,6c-0.6,1-3,5-3,6.7c0,0.5,0.2,0.7,0.5,0.7c0.6,0,1.7-1.1,2.1-2.6c0.3-1,0.7-2,1.1-3c0.8,1.7,1.4,3.5,1.8,5.3
			c0,1.9,0.8,2.8,1.5,2.8c0.4,0,0.8-0.4,0.8-1.3c0-0.5-0.1-1-0.3-1.5c-0.5-1.8-0.8-3.6-0.7-5.5c0-2,0.1-3.9,0.4-5.9
			c3.2-4.2,7.7-7.5,10.5-7.5c1.5,0,2.5,1,2.5,3c0,0.6-0.1,1.2-0.2,1.8c-0.5,2.6-1.7,5.2-1.9,7.5c0,0.3,0,0.7,0,1c0,3.3,1.7,5,4.1,5
			c4.4,0,8.1-5.4,8.1-6c0-0.1,0-0.1-0.1-0.1c-0.1,0-0.5,0.3-1.3,1c-2.1,2.2-4.3,3.3-6,3.3c-1.8,0-3-1.2-3-3.7L148.4,70.5z M135,63.2
			c-0.8,2.1-1.8,4.1-3,6c-0.8-1.6-1.4-3.3-1.7-5.1c0-1.5,3.6-2.1,4.5-2.2c0.2,0,0.3,0,0.5,0.1C135.1,62.4,135,62.8,135,63.2z
			 M134.3,72.4c0,0.3,0,0.4-0.1,0.4c-0.1,0-0.8-0.6-1.5-2.2c0.5-1.2,1.2-2.4,1.9-3.5c-0.1,1.5-0.3,2.9-0.3,4.1c0,0.4,0,0.6,0,0.9
			L134.3,72.4z M181.6,79.2c2.2-0.9,4.8-3.1,7.1-6.2c2.8,4.4,5.6,6.3,6.2,6.3c0.1,0,0.3,0,0.4-0.1c1.2-0.7,4.1-0.9,4.1-1.2
			c0,0-0.1-0.1-0.4-0.2c-3.6-0.7-6.8-3.2-9.3-6.3c1.7-2.6,3.1-5.4,4.1-8.4c0.3-0.9,0.7-0.8,1.1-1c0.6-0.3,0.8-0.6,0.8-0.9
			c0-0.5-2-1.9-3-1.9h-0.1c-0.3,0.2-0.7,0.4-0.9,0.7c-0.1,0.1-0.3,0.2-0.5,0.2h-9.8c0-4.6,0-8.3,0-9.4c0.1-1.8,0.1-1.4,0.9-1.9
			l0.3-0.2h8.2c0.5,0,0.7,0.1,0.7,1.8c0,3.3-0.1,4.1-2.3,4.1c-1.1,0-2.2-0.2-3.2-0.3c-0.2,0-0.4,0-0.6,0c-0.1,0-0.2,0-0.2,0
			c0,0.3,3.1,1.6,3.4,2.4c0.1,0.3,0.2,0.4,0.7,0.4c1.9,0,4.1-1.3,4.3-3.5c0.1-0.9,0.1-1.8,0.1-2.5c0-0.5,0-0.8,0-1.1
			c0-0.5,0-0.6,0.6-0.9c0.5-0.3,0.8-0.5,0.8-0.8c0-0.7-2.3-1.8-3-1.8c-0.2,0-0.3,0.1-0.9,0.8c-0.2,0.2-0.4,0.3-0.7,0.3h-7.9
			l-0.2-0.1c-1-0.6-2.2-1.1-3.3-1.4c0,0-0.1,0-0.1,0.1c0,0.1,0,0.2,0,0.2c0.3,1.7,0.4,3.3,0.5,5c0,0.8,0,2.5,0,4.8
			c0,7.3-0.1,19.8-0.3,23.8v0.1c0,0.8,0.5,1.1,0.9,1.1c0.7,0,1.3-0.6,1.3-1.3V79.2z M174.6,76.8c0-0.7-0.1-1.7-0.1-2.1
			c0-2.5-0.1-10.4-0.1-16.6c0-3,0-5.6,0.1-7c-0.1-0.7,0.3-1.3,0.9-1.6c0.3-0.1,0.5-0.4,0.6-0.8c0-0.3-0.7-1.1-2.3-1.9
			c-0.1,0-0.2,0-0.2,0c-0.4,0-0.9,0.8-1,0.9s-0.2,0.2-0.5,0.2h-4.6c-0.9-0.5-1.9-0.9-2.9-1.2c-0.1,0-0.1-0.1-0.2-0.1
			c0,0-0.1,0-0.1,0.1c0,0.1,0,0.2,0.1,0.2c0.3,1.2,0.4,2.3,0.5,3.5c0.1,3,0.1,10,0.1,11.7c0,7.3-0.8,15-4,18.2
			c-0.5,0.5-0.7,0.7-0.7,0.8c0,0.1,0,0.1,0.1,0.1c0.6,0,5.5-2.7,6.4-15.3h5.9c0,4.4,0,8.4-0.1,10.3c0,1,0,1.9-2.5,1.9
			c-1.1,0-2.1-0.1-3.2-0.3c-0.2,0-0.4,0-0.5,0c-0.1,0-0.2,0-0.2,0c0,0.3,3.7,1.8,4.1,2.4c0.1,0.2,0.1,0.4,0.5,0.4
			C172.8,80.6,174.5,78.9,174.6,76.8L174.6,76.8z M184.1,61.3c0.6,3.6,1.9,7.1,3.8,10.2c-1.9,3.1-4.1,5.8-6.2,7.1
			c0-3.9-0.1-11.2-0.1-17.3L184.1,61.3z M166.8,56.6c0-2.1,0-4.3,0-5.7v-1c0-0.5,0-0.8,0.3-1l0.1-0.1h4.9c0.2,0,0.4,0,0.4,0.3
			c0,1.4,0,4.2,0.1,7.5L166.8,56.6z M166.8,64.9c0-0.9,0-1.7,0-2.5c0-0.9,0-2.7,0-4.7h5.8c0,2.3,0,4.8,0,7.2H166.8z M191.4,61.3
			c0.3,0,0.5,0.2,0.5,0.3c-0.6,3-1.7,5.8-3.2,8.4c-1.8-2.7-3.1-5.6-3.8-8.7H191.4z"/>
		<path id="パス_52" d="M49.7,8.1c-0.4,0.1-0.7,0.3-0.9,0.6C48.6,8.9,48.3,9,48,9h-3.6c0-0.9,0-2,0-3c0-1.7,0-3.4,0.1-4.3
			c0-0.8,0-0.8,0.7-1.2C45.4,0.3,46,0.1,46-0.3c0-0.8-2.5-2-2.8-2c-0.5,0-0.9,0.5-1.1,0.8c-0.1,0.2-0.3,0.3-0.5,0.3H29.4l-0.2-0.1
			c-1-0.6-2-1-3-1.3c-0.1,0-0.1,0-0.1,0.2c0,0.1,0,0.2,0,0.2c0.2,1.5,0.4,3,0.4,4.6v1.9c0,1.8,0,3.5-0.1,4.7h-3.9V8.6
			c0-0.8-0.1-2.1-0.4-2.1c-0.1,0-0.2,0.1-0.2,0.3c-0.5,2.4-1,3.5-3.3,5.6c-0.4,0.3-0.7,0.9-0.7,1.4c0,0.7,0.6,1.2,1.2,1.2
			c1.7,0,3.1-2.5,3.4-5h25.3c0.1,0,0.2,0.1,0.2,0.2c-0.4,1.2-0.9,2.3-1.5,3.4c-0.1,0.2-0.2,0.3-0.2,0.4h0c0.1,0,0.2-0.1,0.3-0.1
			c1.6-0.7,3-2.1,4.7-2.3c1-0.1,1.4-0.5,1.4-0.9C52.9,9.6,50.1,8.1,49.7,8.1z M42.9,12.6c-0.5,0-1,0.7-1.1,0.8
			c-0.1,0.2-0.3,0.3-0.5,0.3H29.6c-1-0.6-2.1-1-3.2-1.4c0,0-0.1,0-0.1,0.1c0,0,0,0.1,0.1,0.3c0.5,2.9,0.7,5.8,0.6,8.8
			c0,3.1-0.1,7.1-0.2,10.8v0c0,0.5,0.5,0.8,1,0.8c0.7,0,1.3-0.5,1.4-1.2v0C29,29.8,29,27,29,24.3h13.2c0,1.7,0,3.2,0,3.8
			c-0.1,1.6-1.1,2.2-3.2,2.2c-1.8-0.1-3.7-0.3-5.5-0.6c-0.1,0-0.2,0-0.3,0c0,0-0.1,0-0.1,0c0,0.3,5,2.1,5.6,2.7
			c0.2,0.3,0.3,0.4,0.6,0.4c0.5,0,5-0.7,5-4.7c0-0.7-0.2-2.9-0.2-3.3c0-0.6,0-1.6,0-2.7c0-1.9,0-4.1,0.1-5.4
			c0.1-0.9,0.4-0.8,1.1-1.2c0.2-0.1,0.8-0.4,0.8-0.9C46.1,13.7,43,12.6,42.9,12.6z M42.4,3.8h-5.2c-0.1-0.1-0.2-0.1-0.2-0.2
			c-1-0.6-2.1-1-3.2-1.3c0,0-0.1,0-0.1,0.1c0,0.1,0,0.2,0,0.3c0.2,1.2,0.4,2.3,0.4,3.5V9h-5.8V1.3c0-0.9,0.2-0.9,0.7-1.3l0.2-0.1
			h12.9c0.3,0,0.3,0.4,0.3,0.4V3.8z M42.2,18.6H29c0-0.9,0-1.6,0-1.9c0-1.4,0-1.3,0.7-1.7l0.2-0.1h11.9c0.5,0,0.5,0.4,0.5,0.4
			C42.2,16,42.2,17.2,42.2,18.6z M42.2,23.2H29v-3.5h13.2V23.2z M42.4,9H36V8c0-2.6,0-2.7,0.6-3.1l0.1-0.1h5.7L42.4,9z M89,30.6
			c-0.2-3.2-0.3-4.5-0.3-6c0-2.5,0-2.9,0.8-3.4c0.3-0.2,1-0.5,1-1.1c0-0.7-2.1-2.3-2.8-2.3c-0.1,0-0.2,0-0.2,0
			c-0.4,0.3-0.7,0.7-0.9,1.1c-0.1,0.2-0.3,0.3-0.6,0.3h-6.8l-0.2-0.1c-0.9-0.5-1.8-1-2.8-1.4c2.6-1.5,4.9-3.5,6.8-5.8
			c3.6,4.1,7.9,6.2,8.7,6.2c0.2,0,0.3,0,0.5-0.1c1.4-0.9,4.3-1.3,4.3-1.6c0-0.1-0.2-0.1-0.6-0.2c-4.4-0.6-8.6-2.6-11.8-5.7
			C85.4,9,86.6,7.1,88,5.1c0.4-0.7,0.4-0.7,1.1-0.9c0.9-0.3,1.1-0.6,1.1-0.9c0-0.6-2.5-2-2.5-2c-0.1,0-0.2,0-0.2,0
			c-0.1,0-0.2,0-0.2,0c-0.3,0.1-0.5,0.3-0.7,0.5C86.2,2,86,2.1,85.7,2.1h-5.8L81.1,0c0.3-0.6,0.3-0.5,1-0.5c0.5,0,1.1-0.2,1.1-0.5
			c0-0.8-3.4-2.1-3.6-2.1c-0.1,0-0.1,0.1-0.2,0.5c-0.2,0.8-0.4,1.6-0.6,2.3c-2,4.8-4.7,9.3-8,13.2c-1.2-0.7-2.6-1.1-3.9-1.1V7.4h5.5
			c0.6,0,0.7-0.3,0.7-0.5c0-0.1,0-0.2,0-0.2c-0.6-1.1-1.6-1.9-2.7-2.4c-0.4,0-0.9,0.6-1.6,1.8c-0.1,0.2-0.3,0.3-0.5,0.3h-1.2
			c0-2.7,0-5,0.1-6.4c0-1.4,0.4-1.2,1-1.6c0.5-0.2,0.7-0.5,0.7-0.7c0-0.8-3.5-1.4-3.7-1.4c-0.1,0-0.1,0-0.1,0.1c0,0.1,0,0.2,0,0.3
			c0.3,2.4,0.5,4.8,0.4,7.3v2.3c-2.2,0-4.3-0.2-6.4-0.6c0,0.5,1.1,2,1.6,2h0c1.5-0.3,3.1-0.4,4.7-0.4c-0.2,4.4-6,12.9-8.2,14.5
			c-0.4,0.3-0.5,0.5-0.5,0.6c0,0,0,0,0.1,0c0.9,0,6.1-3.8,8.7-10c-0.1,6.4-0.3,14.3-0.5,18.8v0.1c0,0.9,0.5,1.2,1,1.2
			c0.8,0,1.4-0.6,1.4-1.4c0,0,0,0,0-0.1c-0.2-5.3-0.2-12.6-0.3-18.9c1.2,0.7,2.2,1.7,3.1,2.9c0.5,0.7,0.9,0.9,1.3,0.9
			c0.5,0,0.9-0.5,0.9-1.1c-0.1-0.7-0.4-1.3-0.9-1.7c2.9-2.6,5.3-5.5,7.4-8.8c0.7,2.2,1.9,4.3,3.3,6.1c-3.2,4.3-7.5,7.6-12.5,9.5
			c-0.9,0.3-1.3,0.6-1.3,0.7c0,0,0.1,0,0.2,0c2.7-0.5,5.2-1.4,7.6-2.7c0.3,1.9,0.5,3.7,0.5,5.6c0,2,0,4.3-0.3,7.9v0.1
			c-0.1,0.4,0.3,0.8,0.7,0.9c0,0,0.1,0,0.1,0c0.6,0,1.2-0.5,1.2-1.1c0,0,0,0,0-0.1c0-0.7,0-1.4,0-2h9c0,0.5,0,1,0,1.6v0
			c0,0.7,0.4,1,0.9,1c0.6,0,1.2-0.4,1.2-1.1C89,30.8,89,30.7,89,30.6L89,30.6z M86.4,20.4c0.6,0,0.6,0.4,0.6,0.5
			c0.1,1.1,0.1,2,0.1,3.1c0,1.1,0,2.4-0.1,4.3h-9c0-1.3,0-2.3,0-3.3c0-1,0-1.8,0-2.6c0-1.4,0-1.1,0.7-1.6l0.4-0.3L86.4,20.4z
			 M85.7,3.1c0.2,0,0.3,0.1,0.3,0.2c-0.9,2.1-2,4.1-3.3,5.9c-1.5-1.7-2.8-3.6-3.7-5.6c0.1-0.2,0.2-0.3,0.3-0.5L85.7,3.1z M122.3,7.1
			c-0.3,0-0.5,0.1-0.8,0.3c-1,0.6-4.8,1.1-5.4,1.1l0.1-0.1c0.4-0.4,0.7-1,0.8-1.5c0-1.4-2.1-2.3-3-2.3c-0.8,0-1.3,0.5-1.3,0.9
			c0,0.1,0.1,0.3,0.3,0.3c0.8,0.2,1.4,0.5,1.4,1.2c0,1.1-5,8.6-10.5,12.7c-0.3,0.3-0.5,0.4-0.5,0.5c0,0,0,0,0.1,0
			c0.2,0,0.4-0.1,0.6-0.2c4-1.8,7.1-5.2,11.1-10.2c0.2,0.2,0.4,0.2,0.7,0.2c0.3,0,0.5-0.1,0.8-0.1c1.4-0.4,2.9-0.7,4.3-0.9
			c0.5,0,0.7,0.1,0.7,0.4c0,0.5-1.8,3.6-4.6,7.1c-1.6-0.5-3.3-0.9-5-1c-0.2,0-0.3,0-0.3,0.1c0,0.1,0.2,0.2,0.7,0.4
			c1.3,0.5,2.5,1.1,3.6,1.8c-4,5-9.2,8.9-15,11.5c-0.6,0.3-1,0.5-1,0.6c0,0,0,0.1,0.2,0.1c0.3,0,0.6-0.1,0.9-0.2
			c7-1.9,12-5.8,16.4-11c0.9,0.6,1.6,1.3,2.4,2c0.3,0.4,0.8,0.6,1.3,0.7c0.5,0,0.9-0.4,0.9-0.9c0,0,0,0,0-0.1c0-0.6-0.2-1.7-3.3-3.2
			c1.2-1.6,2.4-3.3,3.6-5.1c0.8-1.2,1.3-1.9,2-2.1c0.6-0.2,0.9-0.5,0.9-0.8C125.3,8.2,122.5,7.1,122.3,7.1L122.3,7.1z M150.4,4.4
			c-0.5-0.1-1,0.2-1.2,0.7c0,0.1,0.1,0.2,0.3,0.3c1.1,0.3,1.5,0.7,1.5,1.4c0,2.8-8.5,13-15.8,17c-0.3,0.1-0.5,0.3-0.6,0.5
			c0,0,0,0.1,0.1,0.1c0.9,0,7.5-2.7,13.9-9.9c0.4,0.8,0.5,1.7,0.5,2.7c0,2.1,0,3.9-0.1,6.4c0,1.6-0.3,1.2-0.5,2.7
			c-0.1,0.6-0.2,1.1-0.2,1.7c0,1.9,0.7,2.9,1.3,2.9c0.9,0,1.1-2.2,1.1-2.6c0-0.3,0-0.5,0-0.8c0-0.1,0-2.7,0-5.4
			c-0.1-2,0-3.9,0.3-5.9c0.1-0.1,0.1-0.3,0.1-0.4c-0.1-1-0.7-1.8-1.6-2.1c1.1-1.3,2.1-2.7,3-4.1c0.6-0.9,1.8-1.7,1.8-2.5
			C154.3,5.9,151.8,4.4,150.4,4.4z M199.3,4.6c0-1.8-1.5-3.3-3.3-3.3c-1.8,0-3.2,1.5-3.2,3.3c0,0,0,0,0,0c0,1.8,1.4,3.2,3.2,3.2
			c0,0,0,0,0,0C197.8,7.8,199.2,6.4,199.3,4.6L199.3,4.6z M190.9,7.5c-0.8,0-1.2,0.9-2.2,1c-1.9,0.1-6.5,1-8.2,1.2
			c-0.8,0.1-1.6,0.1-2.4,0.1c-1.6,0-2.9-0.2-3.2-0.8c-0.1-0.1-0.3-0.2-0.4-0.2c-0.3,0-0.6,0.2-0.6,0.6c0,0.9,3.2,2.8,4.6,2.8
			c1.1-0.2,2.2-0.5,3.2-0.9c2.7-0.8,5.4-1.4,8.2-1.8c0.8,0,1.2,0.4,1.2,0.9c0,0.9-7,14.3-17.1,18.6c-0.5,0.2-0.8,0.4-0.8,0.6
			c0,0.1,0.1,0.1,0.3,0.1c0.2,0,0.4,0,0.6-0.1c8.2-2.5,14-9.1,18.7-17.4c0.4-0.8,1-1.4,1.8-1.8c0.4-0.3,0.5-0.5,0.5-0.8
			C195,8.5,191.8,7.5,190.9,7.5z M198.2,4.5c0,1.2-1,2.2-2.2,2.2c0,0,0,0,0,0c-1.2,0-2.2-1-2.2-2.2c0,0,0,0,0,0c0-1.2,1-2.2,2.2-2.2
			c0,0,0,0,0,0C197.2,2.3,198.2,3.3,198.2,4.5C198.2,4.5,198.2,4.5,198.2,4.5L198.2,4.5z M219,16.2c0.5,0,0.5,0.2,0.5,0.5
			c-0.1,11.8-3.8,12.6-5.3,12.6c-1.4-0.2-2.7-0.5-4-1.1c-0.1-0.1-0.3-0.1-0.5-0.1c0,0-0.1,0-0.1,0c0,0.4,2.8,2.5,3.2,3.4
			c0.1,0.2,0.2,0.4,1,0.4c2.3,0,4.1-1.6,5.4-3.9c1.3-2.3,1.8-5.7,2-9.7c0.1-1.3,0-1.2,0.9-1.6c0.7-0.3,0.9-0.5,0.9-0.8
			c0-0.8-2.3-2-2.6-2c-0.2,0-0.6,0.4-0.8,0.7c-0.1,0.2-0.2,0.4-0.6,0.4h-5.1c0.2-1.3,0.4-2.5,0.6-3.8c0.2-1.6,0.5-1.4,0.9-1.6
			c0.2-0.1,0.4-0.3,0.4-0.5c0-0.1-0.1-0.2-0.2-0.3h3.6c0,0.3,0,0.7,0,1c0,0.7,0.4,1,0.8,1c0.6,0,1.1-0.6,1.1-1.2c0,0,0,0,0,0V9.7
			c-0.2-2.2-0.2-4.4-0.2-6.1c0-0.6,0-1.1,0-1.5c0-1.1,0.1-0.9,0.7-1.2c0.2-0.2,0.9-0.3,0.9-0.8c0-1.1-2.7-2.1-2.7-2.1
			s-0.5,0-0.9,0.8c-0.1,0.2-0.3,0.3-0.6,0.3h-7.7L210.3-1c-0.9-0.6-1.9-1.1-2.9-1.5c0,0-0.1,0-0.1,0.1c0,0.1,0,0.2,0,0.2
			c0.4,2.1,0.6,4.2,0.5,6.3c0,1.6,0,3.2-0.3,6.2v0.1c0,0.4,0.3,0.8,0.7,0.8c0,0,0.1,0,0.1,0c0.6,0,1.1-0.4,1.2-1V8.9h3v0.6
			c0,0.5-0.8,16.7-9.1,22.4c-0.3,0.2-0.5,0.4-0.7,0.7c0,0,0,0,0.1,0c0.4-0.1,0.7-0.2,1-0.4c5.8-3.1,8.5-9.6,9.8-16.1L219,16.2z
			 M226.5,28.7c0,0.2,4.2,2.2,4.7,2.9c0.2,0.2,0.2,0.3,0.5,0.3c1.1,0,5-0.9,5.1-4.6c0-0.9-0.2-4.6-0.2-4.8c0-3.5-0.1-7.3-0.1-11.2
			c0-3,0-6.1,0.2-9.2c0.1-2.5,0.1-2,1.1-2.5c0.3-0.2,0.7-0.5,0.7-0.8c0-0.2-0.2-0.5-0.6-0.7c-1.2-0.3-2.3-0.6-3.5-0.8
			c-0.1,0-0.1,0-0.1,0.1c0,0.1,0,0.2,0.1,0.3c0.5,2.7,0.6,6.5,0.6,19c0,3.5,0,7.2-0.1,10.4c0,1.3-0.6,2.3-3,2.3
			c-1.6-0.1-3.2-0.3-4.8-0.8C226.8,28.7,226.6,28.6,226.5,28.7C226.5,28.6,226.5,28.7,226.5,28.7z M218.6,0.3c0.5,0,0.5,0.4,0.5,0.4
			c0.1,1,0.1,1.9,0.1,3c0,1.2,0,2.6,0,4.3h-9.7c0-1.1,0-2.2,0-3.2c0-0.7,0-1.6,0-2.4c0.1-1.8,0.1-1.4,0.8-1.9l0.2-0.1H218.6z
			 M228.9,22.7c-0.1-3.2-0.2-6.7-0.2-10.1c0-3.1,0.1-6.1,0.2-8.8c0.1-2,0.2-1.5,1.1-2c0.4-0.2,0.5-0.5,0.5-0.7
			c0-0.8-3.5-1.6-3.9-1.6c0,0,0,0,0,0c0,0,0,0,0,0c0,0.1,0.1,0.2,0.1,0.2c0.4,2.9,0.5,5.8,0.5,8.7c0,4.2-0.2,9.8-0.3,14.4V23
			c0,0.9,0.4,1.2,0.8,1.2C228.4,24.2,228.9,23.5,228.9,22.7C228.9,22.8,228.9,22.8,228.9,22.7L228.9,22.7z"/>
		<path id="パス_54" d="M22.1-35.1c0.1,1,0.1,3.3,0.1,5.7c0,2.8,0,5.8-0.1,7.6c0,0.2,0.1,0.2,0.4,0.2c0.4,0,0.4-0.1,0.4-0.2
			c0-2.2,0-5.5,0-8.3c0-2,0-3.7,0-4.5c0-0.1,0-0.2,0.2-0.2c0.3,0,0.7,0,1,0c0.9,0,1.8,0,2.2,0c0.2,0,0.2-0.3,0.2-0.4
			c0-0.1,0-0.2,0-0.3c0-0.1-0.1-0.1-0.1-0.1c-0.7,0-1.2,0-1.8,0s-1.2,0-2,0C22.3-35.5,22.1-35.3,22.1-35.1L22.1-35.1z M39.2-25.9
			c0.5-1.1,0.8-2.4,0.8-3.6c0.1-1.4,0.2-3.4,0.2-3.8c0-0.2,0.2-0.3,0.4-0.4c0.2-0.1,0.3-0.2,0.3-0.3c0-0.4-1.5-0.7-1.6-0.7
			c0,0-0.1,0-0.1,0.1c0,0,0,0.1,0,0.1c0.1,0.6,0.2,1.2,0.1,1.8c0,1.3-0.1,2-0.1,3.1c-0.2,4-2.1,6.6-6.2,7.6
			c-0.3,0.1-0.4,0.1-0.4,0.2c0,0,0.1,0.1,0.3,0.1c2.6-0.2,5-1.7,6.2-4c0.8,0.9,1.4,1.8,1.9,2.9c0.1,0.5,0.3,0.7,0.5,0.7
			c0.3,0,0.5-0.3,0.5-0.7C42.1-23.8,41-24.9,39.2-25.9z M31.2-21.9c0-1.4-0.1-2.8-0.1-4.1c0-1.5,0-2.8,0-4.1c0-0.7,0.1-0.6,0.5-0.8
			c0.2-0.1,0.3-0.2,0.3-0.3c0-0.1-0.1-0.1-0.3-0.2L31-31.6c0.4-0.6,0.9-1.3,1.3-2.1c0.2-0.3,0.2-0.3,0.5-0.4
			c0.4-0.1,0.5-0.2,0.5-0.3c0-0.1,0-0.1-0.1-0.2c-0.4-0.3-0.9-0.5-1.3-0.7c0,0,0,0,0,0.1c-0.1,0.4-0.2,0.8-0.3,1.2
			c-1,2.2-2.3,4.2-3.9,5.9c0,0-0.1,0.1-0.1,0.2c0,0,0,0,0,0c1.2-0.7,2.2-1.8,2.9-2.9c0,0.4,0,1.2,0,1.2v0.9c0,1.9-0.1,4.7-0.2,6.8
			v0.1c0,0.3,0.2,0.5,0.4,0.5C31-21.4,31.2-21.6,31.2-21.9L31.2-21.9z M31.9-25.1C31.9-25.1,31.9-25.1,31.9-25.1
			c0.2,0.4,0.5,0.8,0.8,1c0.1,0,0.1-0.1,0.2-0.2c1-0.5,4.7-2.5,4.7-2.8c0,0,0-0.1-0.1-0.1c0,0-0.1,0-0.1,0c-0.7,0.4-1.8,0.9-2.8,1.3
			c0-1.2,0-2.7,0-3.9c0-1.3,0-2.4,0-2.8c0-0.7,0-0.8,0.3-0.9c0.2-0.1,0.4-0.2,0.4-0.4c0-0.3-1.4-0.6-1.5-0.6c0,0,0,0,0,0
			c0,0,0,0,0,0c0,0,0,0.1,0,0.1c0.1,0.9,0.2,1.8,0.1,2.7c0,0.6,0,1.2,0,2c0,1.2,0,2.7,0,4c-0.6,0.3-1.2,0.4-1.9,0.4H31.9z M35.7-32
			c-0.1,0-0.2,0-0.2,0s0,0.1,0.2,0.1c0.6,0.3,1.1,0.7,1.5,1.2c0.1,0.2,0.3,0.4,0.6,0.4c0.3,0,0.5-0.2,0.5-0.5c0,0,0,0,0,0
			C38.2-31.6,36.7-32,35.7-32L35.7-32z M54.6-26.8c0,0-0.1-0.1-0.2-0.1c-0.1,0-0.1,0-0.5,0.4c-0.1,0.1-0.1,0.1-0.2,0.1h-5
			c-0.4-0.3-0.9-0.5-1.3-0.7c0,0,0,0,0,0c0,0,0,0.1,0,0.1c0.1,0.7,0.2,1.4,0.2,2c0,0.9,0,2-0.1,3.5v0c0,0.2,0.1,0.3,0.3,0.3
			c0,0,0,0,0,0c0.3,0,0.5-0.2,0.5-0.4c0-0.3,0-0.5,0-0.8h6v0.7c0,0.2,0.1,0.4,0.3,0.4c0,0,0,0,0.1,0c0.3,0,0.5-0.2,0.5-0.5v0
			c-0.1-0.9-0.1-1.9-0.1-2.6c0-1.2,0-1.2,0.3-1.4c0.1-0.1,0.3-0.1,0.3-0.3C55.5-26.2,54.6-26.8,54.6-26.8z M54.2-22.7h-6
			c0-0.5,0-1,0-1.4c0-0.4,0-0.8,0-1.1c0-0.6,0-0.6,0.4-0.8H54c0.2,0,0.2,0.4,0.2,1.7C54.2-23.8,54.2-23.2,54.2-22.7z M58.9-29.1
			c-2.8-0.2-6.2-3.2-7.4-4.9l0.3,0c0.4-0.1,0.5-0.2,0.5-0.3c0,0,0-0.1,0-0.1c-0.4-0.3-0.9-0.6-1.5-0.8c0,0,0,0,0,0.1
			c-0.1,0.4-0.2,0.7-0.3,1.1c-1.6,2.7-3.8,5.1-6.5,6.8c-0.2,0.1-0.2,0.2-0.2,0.2c0,0,0,0,0.1,0c0.9,0,4.8-2.5,7.5-6.6l0,0
			c2.7,4,5.6,5.6,6,5.6c0.1,0,0.1,0,0.2,0c0.5-0.4,1.6-0.7,1.6-0.8C59.1-29.1,59-29.1,58.9-29.1z M53.3-30.1
			C53.3-30.1,53.3-30.1,53.3-30.1c-0.2,0-0.6,0.7-0.7,0.9c0,0.1-0.1,0.1-0.2,0.1h-1.6c-1,0-1.9-0.1-2.9-0.2c0,0.2,0.4,0.8,0.6,0.8h0
			c0.7-0.1,1.5-0.2,2.3-0.1h3.5c0.2,0,0.3-0.1,0.3-0.2C54.5-29.2,53.7-29.9,53.3-30.1z M69-33.8c0-0.5-0.7-0.7-1-0.7
			c-0.1,0-0.3,0-0.4,0c-0.7,0-1.4-0.2-2-0.4C65.5-35,65.4-35,65.3-35c0,0,0,0,0,0c0,0,0,0,0,0c0,0.1,0.1,0.1,0.1,0.2
			c0.4,0.5,1,0.8,1.6,0.8c0.1,0,0.1,0.1,0.1,0.1c0,0.1-0.1,0.2-0.1,0.2c-0.1,0.1-0.6,0.5-1,0.8c-0.1,0.1-0.1,0.1-0.1,0.2
			c0,0,0,0,0.1,0c0.1,0,0.1,0,0.2-0.1c0.7-0.4,1.4-0.6,2.2-0.7C68.7-33.4,69-33.5,69-33.8z M69.9-25.8c0.3-0.7,0.5-1.5,0.5-2.3
			c0-1.3-0.7-3.3-2.3-3.3c-0.6,0-1.2,0.2-1.7,0.4c-0.3,0.1-0.7,0.2-1.1,0.3c-0.3,0-0.5-0.1-0.6-0.4c0,0,0-0.1-0.1-0.1
			s-0.2,0.2-0.2,0.4c0,0.6,0.6,1.1,1.2,1.2c0.4,0,0.7-0.2,1-0.5c0.4-0.4,0.9-0.6,1.5-0.7c0.8,0,1.6,1.1,1.6,2.6
			c0,2.7-2.5,5.8-4.7,6.9c-0.3,0.1-0.5,0.3-0.5,0.3c0,0,0,0,0,0C66.9-21.6,68.9-23.4,69.9-25.8z M80.4-21.6c-0.1-1-0.1-3.3-0.1-5.7
			c0-2.8,0-5.8,0.1-7.6c0-0.2-0.1-0.2-0.4-0.2c-0.4,0-0.4,0.1-0.4,0.2c0,2.2,0,5.5,0,8.3c0,2,0,3.7,0,4.5c0,0.1,0,0.2-0.2,0.2
			c-0.3,0-0.7,0-1,0c-0.9,0-1.8,0-2.2,0c-0.2,0-0.2,0.3-0.2,0.4c0,0.1,0,0.2,0,0.3c0,0.1,0.1,0.1,0.1,0.1c0.7,0,1.2,0,1.8,0
			s1.2,0,2,0C80.2-21.2,80.4-21.4,80.4-21.6L80.4-21.6z M106.5-31.4c0.2,0,0.4-0.2,0.4-0.4c0,0,0,0,0,0c0-0.4-0.4-0.9-1.8-0.9
			c-0.4,0-0.8,0-0.8,0.1c0,0,0.1,0.1,0.3,0.1c0.6,0.2,1.1,0.5,1.6,0.9C106.3-31.4,106.4-31.4,106.5-31.4z M104.9-30.4
			c0.2,0,0.4-0.2,0.4-0.4c0,0,0,0,0,0c0-0.7-1-1-1.9-1c0,0-0.7,0-0.7,0.1c0,0,0.1,0.1,0.2,0.1c0.6,0.2,1.1,0.6,1.5,1
			C104.6-30.5,104.8-30.5,104.9-30.4L104.9-30.4z M105-25.9c0.4,0,1-0.5,1-1.4c0-1.2-1.4-2.5-3.4-2.5c-0.1,0-0.2,0-0.2,0
			s0.1,0.1,0.5,0.2c0.8,0.3,2.2,0.7,2.2,2c0,1-1.2,1.1-1.9,1.3c-0.2,0-0.4,0.1-0.4,0.1c0,0.1,0.2,0.1,1.4,0.1c0.2,0,0.4,0,0.6,0
			C104.9-26,104.9-25.9,105-25.9L105-25.9z M97.1-29.1c-0.9,1.9-2,3.8-3.2,5.5c-0.2,0.3-0.3,0.6-0.4,0.9c0,0.1,0.1,0.3,0.2,0.3
			c0,0,0,0,0,0c0.3,0,0.7-0.4,1-0.8c1-1.9,2.3-4.4,3-6.1c0.8-0.5,1-0.5,1.3-0.5c0.6,0,1,0.7,1,1.9c0,2.2-1,4.4-2.4,4.4
			c-0.5,0-0.9-0.3-1.2-0.7c-0.2-0.3-0.3-0.4-0.4-0.4c0,0,0,0,0,0.1c0,0.2,0,0.3,0.1,0.5c0.1,0.4-0.1,1,0.5,1.2
			c0.2,0.1,0.5,0.1,0.7,0.1c1.6,0,3.4-1.7,3.4-5c0-0.7,0-2.6-1.6-2.6c-0.4,0-0.7,0.1-1.1,0.2c0-0.1,0.1-0.1,0.1-0.2
			c0.3-0.7,0.4-1.4,0.5-2.1c0-0.3-0.1-1-0.8-1c-0.4,0-0.9,0.3-0.9,0.5c0,0.1,0.2,0.2,0.3,0.2c0.4,0.1,0.5,0.4,0.5,0.9
			c0,0.6-0.1,1.3-0.3,1.9c-0.7,0.3-1.4,0.4-2.2,0.5c-0.4,0-0.8-0.1-1-0.4C94-30,94-30.1,93.9-30.1c-0.1,0-0.1,0.1-0.1,0.4
			c0,0.6,0.5,1.2,1.1,1.2c0,0,0.1,0,0.1,0C95.7-28.5,96.4-28.8,97.1-29.1L97.1-29.1z M113.2-27.3l0-0.4c0.2-0.4,0.4-0.7,0.6-1
			c0.3-0.4,0.8-1,0.8-1.4c0-0.3-0.2-0.4-0.9-0.4c0.1-0.7,0.2-1.4,0.3-2.2c0.1-0.8-0.4-1.5-1.2-1.6c0,0-0.1,0-0.1,0
			c-0.2,0-0.5,0.1-0.5,0.2c0,0,0.1,0.1,0.3,0.2c0.7,0.4,1,1.2,0.9,1.9c0,0.3,0,0.6,0,0.9c0,0.2,0,0.5,0,0.7l0,0
			c-0.7,0.4-1.3,1-1.9,1.6c-0.2,0.3-0.6,0.5-0.9,0.7c-0.2,0.1-0.3,0.2-0.3,0.4c0,0.2,0.1,0.5,0.3,0.6c0.2,0.3,0.6,0.9,0.9,1.5
			c-0.7,0.9-1.2,1.9-1.5,3c0,0.2,0.1,0.3,0.2,0.3c0.3,0,0.6-0.4,0.8-0.9c0.2-0.6,0.4-1.2,0.8-1.8c0.4,0.8,0.7,1.6,0.9,2.4
			c0.1,0.7,0.4,1,0.6,1c0.2,0,0.4-0.2,0.4-0.6c0-0.1,0-0.3,0-0.4c-0.2-1-0.3-2-0.4-3c0-0.6,0.1-1.4,0.1-1.4c0,0,0.1-0.1,0.1-0.1
			c1.1-1.3,2.7-2.1,4.4-2.3c1.4,0,3,0.8,3,2.5c0,2.8-4,4.6-4.3,4.7c-0.3,0.1-0.5,0.3-0.5,0.3c0,0,0,0,0.1,0c0.7,0,5.6-1.7,5.6-5
			c-0.2-1.8-1.8-3.2-3.6-3.1c-1.7,0.1-3.4,0.9-4.5,2.2L113.2-27.3z M112.9-28c-0.5,0.8-0.9,1.5-1.5,2.3c-0.3-0.5-0.5-1-0.8-1.5
			c0,0,0-0.1,0-0.1s0-0.1,0.2-0.1c0.4,0,0.8-0.3,0.9-0.7c0.3-0.7,0.8-1.2,1.4-1.5C113.1-29.1,113-28.6,112.9-28L112.9-28z
			 M112.6-24.1c0,0.1,0,0.2,0,0.2c-0.3-0.4-0.6-0.8-0.8-1.2c0.3-0.4,0.6-0.8,1-1.3c-0.1,0.7-0.2,1.3-0.2,2L112.6-24.1z M113.4-28.8
			l0.2-1c0,0,0.1,0,0.1,0c0.1,0,0.2,0,0.2,0.1c0,0,0,0,0,0c0,0.1-0.1,0.2-0.1,0.3L113.4-28.8z M137-26c0.4,0,1-0.5,1-1.4
			c0-1.2-1.4-2.5-3.4-2.5c-0.1,0-0.2,0-0.2,0c0,0,0.1,0.1,0.5,0.2c0.8,0.3,2.2,0.7,2.2,2c0,1-1.2,1.1-1.9,1.3
			c-0.2,0-0.4,0.1-0.4,0.1c0,0.1,0.2,0.1,1.4,0.1c0.2,0,0.4,0,0.6,0C136.9-26,136.9-26,137-26z M129.1-29.1c-0.9,1.9-2,3.8-3.2,5.5
			c-0.2,0.3-0.3,0.6-0.4,0.9c0,0.1,0.1,0.3,0.2,0.3c0,0,0,0,0,0c0.3,0,0.7-0.4,1-0.8c1-1.9,2.3-4.4,3-6.1c0.8-0.5,1-0.5,1.3-0.5
			c0.6,0,1,0.7,1,1.9c0,2.2-1,4.4-2.4,4.4c-0.5,0-0.9-0.3-1.2-0.7c-0.2-0.3-0.3-0.4-0.4-0.4c0,0,0,0,0,0.1c0,0.2,0,0.3,0.1,0.5
			c0.1,0.4-0.1,1,0.5,1.2c0.2,0.1,0.5,0.1,0.7,0.1c1.6,0,3.4-1.7,3.4-5c0-0.7,0-2.6-1.6-2.6c-0.4,0-0.7,0.1-1.1,0.2
			c0-0.1,0.1-0.1,0.1-0.2c0.3-0.7,0.4-1.4,0.5-2.1c0-0.3-0.1-1-0.8-1c-0.4,0-0.9,0.3-0.9,0.5c0,0.1,0.2,0.2,0.3,0.2
			c0.4,0.1,0.5,0.4,0.5,0.9c0,0.6-0.1,1.3-0.3,1.9c-0.7,0.3-1.4,0.4-2.2,0.5c-0.4,0-0.8-0.1-1-0.4c-0.1-0.1-0.2-0.2-0.3-0.2
			c-0.1,0-0.1,0.1-0.1,0.4c0,0.6,0.5,1.2,1.1,1.2c0,0,0.1,0,0.1,0C127.7-28.5,128.4-28.8,129.1-29.1z M150.5-25.8
			c0.2-1.1,0.4-2.3,0.7-3.4c0-0.2,0.1-0.5,0.1-0.7c0-1.2-0.6-1.9-1.6-1.9c-1,0-2.5,0.7-4.4,2.8c0.3-0.5,0.5-0.8,0.5-1
			c0-0.2-0.1-0.3-0.5-0.4h-0.1c0,0,0,0,0-0.1c0-0.3,0.1-0.7,0.2-1.1c0.1-0.4,0.1-0.8,0.2-1.2c0-0.8-0.6-1.5-1.5-1.7
			c-0.3,0-0.6,0.1-0.6,0.3c0,0.1,0.1,0.2,0.4,0.3c0.5,0.1,1,0.4,1,1.7c0,0.5-0.1,1.1-0.1,1.6c0,0.1,0,0.2,0,0.3
			c-2.3,0.6-2.7,0.9-2.7,1.6c0,0.3,0.1,0.8,1,2.7c-0.6,0.9-1.1,1.9-1.3,3c0,0.2,0.1,0.3,0.2,0.3c0.3,0,0.8-0.5,0.9-1.2
			c0.1-0.5,0.3-0.9,0.5-1.3c0.3,0.8,0.6,1.6,0.8,2.4c0,0.8,0.4,1.2,0.7,1.2c0.2,0,0.4-0.2,0.4-0.6c0-0.2-0.1-0.5-0.1-0.7
			c-0.2-0.8-0.3-1.6-0.3-2.4c0-0.9,0.1-1.8,0.2-2.6c1.4-1.9,3.4-3.3,4.7-3.3c0.7,0,1.1,0.4,1.1,1.3c0,0.3,0,0.5-0.1,0.8
			c-0.2,1.2-0.8,2.3-0.8,3.3c0,0.1,0,0.3,0,0.4c0,1.5,0.8,2.2,1.8,2.2c2,0,3.6-2.4,3.6-2.7c0,0,0,0,0,0c-0.1,0-0.2,0.1-0.6,0.5
			c-0.7,0.8-1.6,1.3-2.7,1.5c-0.8,0-1.3-0.5-1.3-1.6V-25.8z M144.5-29c-0.3,0.9-0.8,1.8-1.3,2.7c-0.4-0.7-0.6-1.5-0.8-2.3
			c0-0.7,1.6-0.9,2-1c0.1,0,0.1,0,0.2,0C144.6-29.4,144.6-29.2,144.5-29z M144.2-24.9c0,0.1,0,0.2,0,0.2c-0.1,0-0.3-0.3-0.7-1
			c0.2-0.5,0.5-1.1,0.8-1.6c-0.1,0.7-0.1,1.3-0.1,1.8c0,0.2,0,0.3,0,0.4V-24.9z M166.1-30.4c-0.1,0-0.2,0-0.4,0
			c-0.4,0-0.8-0.1-1.2-0.2c-0.3-0.1-0.9-0.4-1.1-0.5c-0.1,0-0.2-0.1-0.4-0.1c0,0-0.1,0-0.1,0c0.5,0.9,1.5,1.4,2.6,1.4
			c0.3,0,0.6,0,0.8-0.1c0,1.6,0,3.2,0,3.9c0,0.3,0,0.6,0,0.9c-0.4-0.1-0.8-0.1-1.2-0.1c-1.6,0-2.8,0.7-2.8,1.6
			c0.2,1,1.1,1.7,2.1,1.6c1.3-0.1,2.3-1,2.4-2.3c0.7,0.3,1.3,0.9,1.7,1.5c0.2,0.3,0.3,0.4,0.4,0.4c0.2,0,0.4-0.2,0.4-0.5
			c0-0.5-1-1.5-2.5-2c0-0.5,0-1-0.1-1.4c0-0.5-0.1-1.5-0.1-2.6c0-0.3,0-0.7,0-1c0.3-0.1,2.1-0.6,2.1-1.4c0-0.2-0.1-0.4-0.3-0.4
			c-0.1,0-0.4-0.1-0.7-0.2c-0.2,0-0.7-0.3-1-0.4c0-0.1,0-0.2,0-0.3c0-0.6-0.8-1.1-1.1-1.1c-0.3,0-0.5,0.2-0.6,0.4
			c0,0.1,0.2,0.1,0.4,0.2c0.3,0.1,0.5,0.1,0.5,1.5v0.2c0,0.3,0,0.6,0,0.9L166.1-30.4z M159.2-21.7c0.2,0,0.3-0.2,0.3-0.4
			c0-0.1,0-0.3-0.1-0.4c-0.1-0.3-0.1-0.5-0.1-0.8c0.2-1.6,0.6-3.1,1.4-4.6c0,0,0-0.1,0-0.2c0-0.1,0-0.1-0.1-0.1
			c-0.3,0-1.2,2.1-1.6,3c-0.1,0.2-0.2,0.3-0.2,0.3c-0.2,0-0.2-0.8-0.2-1.1c0.1-1.2,0.4-2.3,0.8-3.4c0.3-0.6,0.5-1.3,0.7-2
			c0-1.1-1.2-2.6-1.7-2.6c0,0-0.2,0-0.2,0.1c0,0,0.1,0.1,0.2,0.3c0.5,0.6,0.8,1.3,0.8,2.1c0,0.6-0.1,1.2-0.3,1.8
			c-0.4,1.4-0.7,2.9-0.8,4.3C158.1-23.3,158.6-21.7,159.2-21.7z M166.5-24.5c-0.1,1-0.9,1.8-1.9,1.8c-0.7,0-1.5-0.4-1.5-0.9
			c0-0.7,1.1-1.1,2.1-1.1C165.6-24.7,166.1-24.6,166.5-24.5z M169-32.9c0.2,0,0.4-0.2,0.4-0.4c0,0,0,0,0,0c0-0.7-1.3-1.1-2.1-1.1
			c-0.2,0-0.4,0-0.4,0.1c0,0,0.1,0.1,0.2,0.1c0.5,0.3,1,0.6,1.4,1.1C168.7-33,168.9-32.9,169-32.9z M170.7-33.7
			c0.2,0,0.4-0.2,0.4-0.4c0,0,0,0,0,0c0-0.7-1.1-1-2-1c-0.3,0-0.5,0-0.5,0.1s0.1,0.1,0.2,0.1c0.5,0.3,1,0.6,1.5,1.1
			C170.4-33.8,170.5-33.7,170.7-33.7z M167.3-32.3c0.9,0.7,1.1,0.8,1.1,1c0,0.1-0.1,0.4-1.2,0.7c0-0.5,0.1-0.9,0.1-1.4L167.3-32.3z
			 M178.2-23.7l0-1.7c1-1,2.4-1.6,3.9-1.8c1.9,0,2,1.1,2,1.3c-0.1,1.2-1.2,2.1-2.5,2.1c-0.6,0.1-1.1-0.4-1.2-1c0-0.1,0-0.2,0-0.3
			c0-0.3,0.1-0.6,0.2-0.9c0-0.1,0-0.2,0-0.3c0-0.1,0-0.1,0-0.1c-0.4,0.5-0.6,1.2-0.6,1.9c-0.1,0.8,0.6,1.5,1.4,1.6
			c0.1,0,0.2,0,0.2,0c1.3,0,3.3-1.1,3.3-2.7c0-1.1-1-1.9-2.6-1.9c-1.5,0.1-2.9,0.6-4,1.5c0-1,0-2.1,0-3.1c1.1-0.6,1.5-0.8,1.5-1.4
			c0-0.2-0.1-0.4-0.4-0.4c-0.4-0.1-0.8-0.2-1.1-0.3c0-0.2,0-0.3,0-0.4c0-0.6-0.8-0.9-1.3-0.9c-0.4,0-0.6,0.2-0.6,0.4
			c0,0.1,0.1,0.1,0.2,0.1c0.8,0,0.9,0.6,1.1,2.6c-0.5,0.3-1.1,0.5-1.8,0.5c-0.4,0-0.9-0.1-1.3-0.2c-0.1,0-0.1,0-0.2,0
			c0,0-0.1,0-0.1,0.1c0,0.3,0.3,0.9,1.3,0.9c0.7,0,1.4-0.2,2-0.6c0,0.7,0.1,1.5,0.1,2.3c0,0.3,0,0.6,0,0.9c-1,0.7-2,1.3-3.1,1.7
			c-0.1,0-0.1-0.1-0.2-0.1c0,0,0,0-0.1,0c-0.3,0.1-0.5,0.4-0.5,0.8c0,0.2,0.2,0.4,0.5,0.4c0.5-0.1,1-0.2,1.5-0.5
			c0.5,0.1,1,0.4,1.4,0.8c0.1,0.2,0.3,0.3,0.5,0.3C178-22.5,178.2-23,178.2-23.7L178.2-23.7z M185.8-29.6c0.2,0,0.3-0.2,0.4-0.4
			c0-0.5-0.8-1.2-1.9-1.2c-0.8,0-1.6,0.4-2.1,1.1c0,0,0,0,0.1,0c0.1,0,0.3-0.1,0.4-0.2c0.3-0.2,0.8-0.4,1.2-0.4c0.2,0,0.8,0,0.8,0.5
			c-0.1,0.4-0.3,0.7-0.6,0.9c-0.1,0.1-0.2,0.2-0.2,0.2c0,0,0,0,0,0c0.1,0,0.2-0.1,0.3-0.1c0.2-0.1,0.4-0.2,0.6-0.3
			C185.4-29.6,185.4-29.5,185.8-29.6z M177.6-25c0,0.3,0,0.7-0.1,1c0,0.2,0,0.4-0.5,0.4c-0.3,0-0.7,0-1-0.1
			C176.6-24.2,177.1-24.6,177.6-25z M178.2-30.6c0-0.2,0-0.4,0-0.6c0.3,0.1,0.7,0.4,0.7,0.6c0,0.1,0,0.2-0.8,0.6V-30.6z M201-25
			C201-25,201-25,201-25C200.9-25,200.9-25,201-25c-0.1,0-0.2,0-0.3,0.1c-1.3,1.3-3,2.1-4.8,2.2c-2.9,0-2.9-2.7-2.9-3.5
			c0.1-1.9,0.3-3.9,0.7-5.8c0-0.2,0-0.4,0-0.5c0.1-0.8-0.6-1.6-1.4-1.6c0,0-0.1,0-0.1,0c-0.1,0-0.2,0-0.2,0.1c0,0,0.1,0.1,0.2,0.3
			c0.4,0.5,0.6,1.2,0.5,1.9c0,1.8-0.4,3.6-0.4,5.4c0,0.5,0,1.1,0.1,1.6c0.1,1.7,1.6,3.1,3.3,3.1C198.6-21.8,201-24.7,201-25z
			 M209.6-27c1-0.9,2.3-1.5,3.7-1.7c1.2,0,1.5,0.7,1.5,1.1c0,0.2-0.1,1.2-1.8,1.2c-0.7,0-1.5-0.3-2-0.8c-0.2-0.2-0.3-0.3-0.4-0.3
			c0,0-0.1,0-0.1,0.1c0,0,0,0,0,0c0.5,1,1.5,1.7,2.6,1.7c1.2,0.1,2.2-0.7,2.3-1.8c0,0,0,0,0,0c0-0.9-0.9-1.7-2.3-1.7
			c-1.3,0-2.5,0.7-4,1.7l0,0c-0.3-0.4-0.6-0.8-0.7-1.3c0-0.2,0.2-0.5,0.7-0.5c0.5,0,1,0.1,1.5,0.3c0.2,0.1,0.4,0.1,0.6,0.1
			c0.3,0,0.6-0.3,0.6-0.6c0,0,0,0,0-0.1c0-0.6-0.8-1-1-1c0,0-0.1,0-0.1,0c0,0,0,0.1,0.1,0.2c0.1,0.1,0.1,0.2,0.1,0.4
			c0,0.2-0.3,0.3-0.6,0.3c-0.4,0-0.8,0-1.2,0c-1.2,0-1.4,0.7-1.4,1c0,0.3,0.2,0.5,0.4,0.7c0.2,0.3,0.5,0.6,0.7,0.9
			c-0.8,0.5-1.1,0.8-1.7,0.8c-0.2,0-0.4,0-0.5-0.1c0,0-0.1,0-0.1,0c-0.1,0-0.2,0.1-0.2,0.1c0,0,0,0,0,0c0,0.3,0.6,0.7,1,0.7
			c0.6,0,1.1-0.4,1.9-1c0,0.1,0.1,0.2,0.1,0.2c1.4,2.3,1.6,3.3,1.6,4.2c0,0.5,0.2,0.7,0.4,0.7c0.2,0,0.5-0.2,0.5-0.7
			c0-1.1-1.4-3.3-2.1-4.3L209.6-27z M230.2-25.8c0.2-1.1,0.4-2.3,0.7-3.4c0-0.2,0.1-0.5,0.1-0.7c0-1.2-0.6-1.9-1.6-1.9
			c-1,0-2.5,0.7-4.4,2.8c0.3-0.5,0.5-0.8,0.5-1c0-0.2-0.1-0.3-0.5-0.4h-0.1c0,0,0,0,0-0.1c0-0.3,0.1-0.7,0.2-1.1
			c0.1-0.4,0.1-0.8,0.2-1.2c0-0.8-0.6-1.5-1.5-1.7c-0.3,0-0.6,0.1-0.6,0.3c0,0.1,0.1,0.2,0.4,0.3c0.5,0.1,1,0.4,1,1.7
			c0,0.5-0.1,1.1-0.1,1.6c0,0.1,0,0.2,0,0.3c-2.3,0.6-2.7,0.9-2.7,1.6c0,0.3,0.1,0.8,1,2.7c-0.6,0.9-1.1,1.9-1.3,3
			c0,0.2,0.1,0.3,0.2,0.3c0.3,0,0.8-0.5,0.9-1.2c0.1-0.5,0.3-0.9,0.5-1.3c0.3,0.8,0.6,1.6,0.8,2.4c0,0.8,0.4,1.2,0.7,1.2
			c0.2,0,0.4-0.2,0.4-0.6c0-0.2-0.1-0.5-0.1-0.7c-0.2-0.8-0.3-1.6-0.3-2.4c0-0.9,0.1-1.8,0.2-2.6c1.4-1.9,3.4-3.3,4.7-3.3
			c0.7,0,1.1,0.4,1.1,1.3c0,0.3,0,0.5-0.1,0.8c-0.2,1.2-0.8,2.3-0.8,3.3c0,0.1,0,0.3,0,0.4c0,1.5,0.8,2.2,1.8,2.2
			c2,0,3.6-2.4,3.6-2.7c0,0,0,0,0,0c-0.1,0-0.2,0.1-0.6,0.5c-0.7,0.8-1.6,1.3-2.7,1.5c-0.8,0-1.3-0.5-1.3-1.6V-25.8z M224.2-29
			c-0.3,0.9-0.8,1.8-1.3,2.7c-0.4-0.7-0.6-1.5-0.8-2.3c0-0.7,1.6-0.9,2-1c0.1,0,0.1,0,0.2,0C224.3-29.4,224.3-29.2,224.2-29z
			 M223.9-24.9c0,0.1,0,0.2,0,0.2c-0.1,0-0.3-0.3-0.7-1c0.2-0.5,0.5-1.1,0.8-1.6c-0.1,0.7-0.1,1.3-0.1,1.8c0,0.2,0,0.3,0,0.4V-24.9z
			 M245.8-30.4c-0.1,0-0.2,0-0.4,0c-0.4,0-0.8-0.1-1.2-0.2c-0.3-0.1-0.9-0.4-1.1-0.5c-0.1,0-0.2-0.1-0.4-0.1c0,0-0.1,0-0.1,0
			c0.5,0.9,1.5,1.4,2.6,1.4c0.3,0,0.6,0,0.8-0.1c0,1.6,0,3.2,0,3.9c0,0.3,0,0.6,0,0.9c-0.4-0.1-0.8-0.1-1.2-0.1
			c-1.6,0-2.8,0.7-2.8,1.6c0.2,1,1.1,1.7,2.1,1.6c1.3-0.1,2.3-1,2.4-2.3c0.7,0.3,1.3,0.9,1.7,1.5c0.2,0.3,0.3,0.4,0.4,0.4
			c0.2,0,0.4-0.2,0.4-0.5c0-0.5-1-1.5-2.5-2c0-0.5,0-1-0.1-1.4c0-0.5-0.1-1.5-0.1-2.6c0-0.3,0-0.7,0-1c0.3-0.1,2.1-0.6,2.1-1.4
			c0-0.2-0.1-0.4-0.3-0.4c-0.1,0-0.4-0.1-0.7-0.2c-0.2,0-0.7-0.3-1-0.4c0-0.1,0-0.2,0-0.3c0-0.6-0.8-1.1-1.1-1.1
			c-0.3,0-0.5,0.2-0.6,0.4c0,0.1,0.2,0.1,0.4,0.2c0.3,0.1,0.5,0.1,0.5,1.5v0.2c0,0.3,0,0.6,0,0.9L245.8-30.4z M238.9-21.7
			c0.2,0,0.3-0.2,0.3-0.4c0-0.1,0-0.3-0.1-0.4c-0.1-0.3-0.1-0.5-0.1-0.8c0.2-1.6,0.6-3.1,1.4-4.6c0,0,0-0.1,0-0.2
			c0-0.1,0-0.1-0.1-0.1c-0.3,0-1.2,2.1-1.6,3c-0.1,0.2-0.2,0.3-0.2,0.3c-0.2,0-0.2-0.8-0.2-1.1c0.1-1.2,0.4-2.3,0.8-3.4
			c0.3-0.6,0.5-1.3,0.7-2c0-1.1-1.2-2.6-1.7-2.6c0,0-0.2,0-0.2,0.1c0,0,0.1,0.1,0.2,0.3c0.5,0.6,0.8,1.3,0.8,2.1
			c0,0.6-0.1,1.2-0.3,1.8c-0.4,1.4-0.7,2.9-0.8,4.3C237.8-23.3,238.3-21.7,238.9-21.7z M246.1-24.5c-0.1,1-0.9,1.8-1.9,1.8
			c-0.7,0-1.5-0.4-1.5-0.9c0-0.7,1.1-1.1,2.1-1.1C245.3-24.7,245.7-24.6,246.1-24.5L246.1-24.5z M246.9-32.3c0.9,0.7,1.1,0.8,1.1,1
			c0,0.1-0.1,0.4-1.2,0.7c0-0.5,0.1-0.9,0.1-1.4L246.9-32.3z M261.2-28.4c0-1-0.1-2.2-0.1-2.9c0-0.8,0.1-0.9,0.3-1
			c0.1-0.1,0.4-0.2,0.4-0.4c0-0.1,0-0.3-0.9-0.8c0,0-0.1,0-0.1,0c0,0-0.1,0-0.1,0c-0.1,0.1-0.2,0.2-0.3,0.4c0,0.1-0.1,0.1-0.2,0.1
			h-1.5c0.3-0.3,0.5-0.7,0.7-1.1c0-0.1,0.2-0.2,0.3-0.2c0.3,0,0.5-0.2,0.5-0.3c0-0.1-0.1-0.2-0.2-0.2c-0.4-0.2-0.8-0.4-1.2-0.5
			c0,0,0,0-0.1,0c0,0,0,0,0,0.4c0,0.7-0.1,1.3-0.4,1.9h-0.4l0,0c-0.4-0.3-0.8-0.5-1.2-0.7c0,0,0,0,0,0c0,0,0,0.1,0,0.1
			c0.1,0.7,0.2,1.5,0.2,2.2v0.4l-0.2,0.1c-1.3,0.9-2.8,1.5-4.3,1.9c-0.1,0-0.1,0-0.1,0c0,0.1,0.8,0.9,1,0.9c0.1,0,0.2-0.2,0.4-0.3
			c1.1-0.7,2.1-1.4,3.1-2.3l0.1-0.1c0,0.7,0,1.6-0.1,2.7v0c0,0.2,0.1,0.3,0.3,0.3c0,0,0,0,0,0c0.2,0,0.4-0.2,0.5-0.4v-0.5h3
			c0,0.1,0,0.2,0,0.3c0,0.2,0.1,0.4,0.3,0.4c0,0,0,0,0,0C261-27.9,261.2-28.1,261.2-28.4L261.2-28.4z M265.3-26.1
			c0.3,0,0.4-0.1,0.4-0.2c-0.3-0.6-0.8-1-1.4-1.2c-0.1,0-0.1,0-0.2,0.1c-0.2,0.2-0.5,0.5-0.7,0.8c-0.1,0.1-0.2,0.1-0.3,0.1h-3.9
			c0-0.2,0-0.4,0-0.6c0-0.4,0.2-0.4,0.5-0.5c0.1-0.1,0.2-0.1,0.2-0.2c0,0,0-0.3-1.4-0.4c-0.1,0-0.1,0-0.1,0.1v0
			c0.1,0.3,0.1,0.7,0.2,1v0.5h-0.6c-0.9,0-4.2,0-5.9-0.3c0,0.2,0.4,0.8,0.7,0.8h0c1.5-0.1,4.2-0.2,5.1-0.2h0.5
			c-1.7,2-3.9,3.5-6.4,4.4c-0.2,0.1-0.3,0.1-0.3,0.2c0,0,0,0,0.1,0c0.3,0,3.4-0.4,6.8-3.6c0,1.2-0.1,2.6-0.1,3.3v0.1
			c0,0.3,0.2,0.4,0.3,0.4c0.1,0,0.5-0.1,0.5-0.5v0c0-0.5,0-1.6,0-2.7v-1.3c1.4,1.8,3.3,3.1,5.4,3.9c0.1,0,0.1,0,0.2-0.1
			c0.5-0.4,1.6-0.7,1.6-0.8c0,0,0,0-0.2,0c-2.6-0.2-5-1.4-6.9-3.2H265.3z M260.4-30.7c0,0.5,0,1.1,0,1.6h-3c0-0.5,0-1.1,0-1.6H260.4
			z M260.2-32.6c0.1,0,0.2,0.1,0.2,0.2c0,0,0,0,0,0c0,0.4,0,0.8,0,1.3h-3c0-0.2,0-0.4,0-0.7c0-0.7,0-0.6,0.3-0.8l0.1-0.1H260.2z
			 M265-28.3c0.2,0,0.4-0.2,0.4-0.4c0,0,0,0,0,0c0-1.2-3.9-1.7-4-1.7c0,0-0.1,0-0.1,0c0,0,0,0,0.1,0.1c1.1,0.4,2,0.9,2.9,1.7
			C264.5-28.4,264.7-28.3,265-28.3L265-28.3z M261.4-31.3c0.8-0.3,2.6-1.2,3-1.4c0,0,0.1,0,0.2,0c0.1,0,0.1,0,0.2,0
			c0.1,0,0.1,0,0.2,0c0.2,0,0.3-0.1,0.3-0.2c0-0.4-1.1-1-1.1-1c0,0,0,0,0,0.1c-0.1,0.4-0.8,1.2-2.7,2.4
			C261.3-31.4,261.3-31.4,261.4-31.3C261.3-31.3,261.3-31.3,261.4-31.3C261.4-31.3,261.4-31.3,261.4-31.3L261.4-31.3z M252.8-33.8
			c0.1,0.1,0.1,0.1,0.2,0.1c0.6,0.4,1.1,0.9,1.5,1.4c0.1,0.2,0.3,0.4,0.6,0.4c0.2,0,0.4-0.2,0.4-0.5C255.4-33.4,253-33.8,252.8-33.8
			L252.8-33.8z M280.7-25C280.7-25,280.6-25,280.7-25C280.6-25,280.6-25,280.7-25c-0.1,0-0.2,0-0.3,0.1c-1.3,1.3-3,2.1-4.8,2.2
			c-2.9,0-2.9-2.7-2.9-3.5c0.1-1.9,0.3-3.9,0.7-5.8c0-0.2,0-0.4,0-0.5c0.1-0.8-0.6-1.6-1.4-1.6c0,0-0.1,0-0.1,0
			c-0.1,0-0.2,0-0.2,0.1c0,0,0.1,0.1,0.2,0.3c0.4,0.5,0.6,1.2,0.5,1.9c0,1.8-0.4,3.6-0.4,5.4c0,0.5,0,1.1,0.1,1.6
			c0.1,1.7,1.6,3.1,3.3,3.1C278.3-21.8,280.7-24.7,280.7-25L280.7-25z M289.7-24c0-0.2-0.1-0.4-0.1-0.7v-0.2
			c0.1-0.7,0.2-1.4,0.3-2.1c0-0.1,0.1-0.3,0.1-0.4c0-0.1,0-0.1,0-0.1c0,0-0.1,0.1-0.2,0.4c-0.3,0.6-0.6,1.6-1,2.2
			c-0.1,0.2-0.3,0.3-0.5,0.3c-0.2,0-2-0.4-2-3.4c0-0.7,0.1-1.4,0.2-2.1c0-0.2,0.1-0.4,0.1-0.5c0.1-0.6-0.3-1.2-0.9-1.3
			c-0.1,0-0.1,0-0.1,0.1c0,0,0,0.1,0,0.1c0,0.3,0.1,0.5,0.1,0.8c0,0.1,0,0.3,0,0.5c0,0.6-0.1,1.2-0.1,1.9c-0.1,1.7,0.5,3.3,1.8,4.5
			c0.4,0.4,1,0.6,1.6,0.7C289.7-23.3,289.7-23.7,289.7-24L289.7-24z M295.9-26.5c0.3,0,0.5-0.3,0.5-0.8c0-1.5-1.8-3.3-4-3.3
			c-0.2,0-0.3,0-0.3,0.1c0,0.1,0.2,0.2,0.7,0.3c1.4,0.4,2.5,1.6,2.6,3.1C295.5-26.7,295.7-26.5,295.9-26.5z"/>
	</g>
</g>
</svg>
